<?xml version="1.0" encoding="UTF-8"?>
<svg id="svg1" xmlns="http://www.w3.org/2000/svg" version="1.1" xmlns:svg="http://www.w3.org/2000/svg" xmlns:xlink="http://www.w3.org/1999/xlink" viewBox="0 0 1821.33 1821.33">
  <!-- Generator: Adobe Illustrator 30.2.1, SVG Export Plug-In . SVG Version: 2.1.1 Build 1)  -->
  <defs>
    <style>
      .st0 {
        fill: url(#linear-gradient2);
      }

      .st1 {
        fill: url(#linear-gradient36);
      }

      .st2 {
        fill: url(#linear-gradient39);
      }

      .st3 {
        clip-path: url(#clippath-6);
      }

      .st4 {
        clip-path: url(#clippath-7);
      }

      .st5 {
        fill: url(#linear-gradient34);
      }

      .st6 {
        clip-path: url(#clippath-4);
      }

      .st7 {
        fill: url(#linear-gradient33);
      }

      .st8 {
        fill: url(#linear-gradient10);
      }

      .st9 {
        fill: url(#linear-gradient32);
      }

      .st10 {
        fill: url(#linear-gradient21);
      }

      .st11 {
        fill: url(#linear-gradient37);
      }

      .st12 {
        fill: url(#linear-gradient56);
      }

      .st13 {
        fill: url(#linear-gradient27);
      }

      .st14 {
        clip-path: url(#clippath-9);
      }

      .st15 {
        fill: url(#linear-gradient53);
      }

      .st16 {
        clip-path: url(#clippath-10);
      }

      .st17 {
        fill: url(#linear-gradient35);
      }

      .st18 {
        fill: url(#linear-gradient26);
      }

      .st19 {
        fill: url(#linear-gradient1);
      }

      .st20 {
        fill: url(#linear-gradient9);
      }

      .st21 {
        fill: url(#linear-gradient18);
      }

      .st22 {
        fill: url(#linear-gradient23);
      }

      .st23 {
        fill: url(#linear-gradient43);
      }

      .st24 {
        clip-path: url(#clippath-11);
      }

      .st25 {
        fill: url(#linear-gradient8);
      }

      .st26 {
        fill: url(#linear-gradient11);
      }

      .st27 {
        fill: url(#linear-gradient16);
      }

      .st28 {
        fill: url(#linear-gradient24);
      }

      .st29 {
        fill: url(#linear-gradient30);
      }

      .st30 {
        clip-path: url(#clippath-1);
      }

      .st31 {
        fill: url(#linear-gradient46);
      }

      .st32 {
        fill: url(#linear-gradient22);
      }

      .st33 {
        fill: url(#linear-gradient29);
      }

      .st34 {
        clip-path: url(#clippath-5);
      }

      .st35 {
        clip-path: url(#clippath-8);
      }

      .st36 {
        fill: url(#linear-gradient49);
      }

      .st37 {
        fill: url(#linear-gradient19);
      }

      .st38 {
        fill: url(#linear-gradient12);
      }

      .st39 {
        fill: url(#linear-gradient42);
      }

      .st40 {
        fill: url(#linear-gradient28);
      }

      .st41 {
        clip-path: url(#clippath-3);
      }

      .st42 {
        fill: url(#linear-gradient40);
      }

      .st43 {
        fill: url(#linear-gradient7);
      }

      .st44 {
        clip-path: url(#clippath-12);
      }

      .st45 {
        fill: url(#linear-gradient20);
      }

      .st46 {
        fill: url(#linear-gradient4);
      }

      .st47 {
        fill: url(#linear-gradient31);
      }

      .st48 {
        fill: url(#linear-gradient14);
      }

      .st49 {
        fill: url(#linear-gradient5);
      }

      .st50 {
        fill: url(#linear-gradient3);
      }

      .st51 {
        fill: url(#linear-gradient55);
      }

      .st52 {
        fill: url(#linear-gradient38);
      }

      .st53 {
        fill: url(#linear-gradient25);
      }

      .st54 {
        fill: url(#linear-gradient52);
      }

      .st55 {
        fill: url(#linear-gradient15);
      }

      .st56 {
        fill: url(#linear-gradient17);
      }

      .st57 {
        fill: url(#linear-gradient54);
      }

      .st58 {
        fill: url(#linear-gradient50);
      }

      .st59 {
        fill: url(#linear-gradient51);
      }

      .st60 {
        fill: url(#linear-gradient6);
      }

      .st61 {
        clip-path: url(#clippath-2);
      }

      .st62 {
        fill: url(#linear-gradient48);
      }

      .st63 {
        fill: url(#linear-gradient13);
      }

      .st64 {
        fill: url(#linear-gradient45);
      }

      .st65 {
        fill: #299d4a;
      }

      .st66 {
        fill: url(#linear-gradient47);
      }

      .st67 {
        fill: url(#linear-gradient);
      }

      .st68 {
        fill: url(#linear-gradient44);
      }

      .st69 {
        clip-path: url(#clippath);
      }

      .st70 {
        fill: url(#linear-gradient41);
      }

      .st71 {
        fill: #ae1a32;
      }
    </style>
    <clipPath id="clippath">
      <path class="st65" d="M886.41,812.58c-8.28-15.46-18.03-23.29-29.01-23.29-15.85,0-30.6,11.91-43.85,35.4h-2.12l-.58.76c-6.91,8.97-13.28,18.32-18.92,27.81-7.74,10.21-16.47,17.05-26.39,23.7-14.8,9.92-38.64,21.28-68.9,31.54-45.92,15.57-112.86,29.58-165.79,21.02-17.91-2.9-36.21-12.69-53.08-26.49,23.24-12.54,40.26-19.38,50.61-20.35l1.09-.1.48-.98c13.63-27.95,13.89-34.11,12.15-36.59l-.42-.44c-1.45-1.09-6.44-3.38-33.01-10.73-24.67-6.16-48.13-9.29-69.73-9.29-44.49,0-72.72,5.56-86.29,17l-.36.41c-.72,1.08-2.27,4.13-7.33,18.12-6,16.55-5.42,17.14-4.36,18.2l.87.87,7.56-2.67c5.45-1.49,12.4-2.24,20.65-2.24,12.57,0,28.37,8.14,46.98,24.2-32.24,16.77-58.2,26.75-77.23,29.69h-1.13c-7.73,0-16.95,4.14-16.95,23.87,0,23.63,22.34,37.88,66.41,42.34,43.66,3.88,50.17,11.78,50.17,16.15,0,2.65-6.34,11.97-65.09,41.35-50.03,24.63-94.27,37.12-131.5,37.12-26.33,0-47.65-6.83-63.42-20.35-22.5-18.25-33.91-44.15-33.91-76.98,0-14.05,2.55-27.66,7.57-40.47,9.4-24.46,8-27.88,5.76-29.28l-.2-.11c-1.3-.61-2.73-.63-4.13-.05-2.9,1.2-7.71,5.42-15.83,28.06-8.51,22.69-12.82,45.7-12.82,68.39,0,41.49,13.98,73.33,41.56,94.67,18.22,13.79,41.78,20.79,70.04,20.79,60.44,0,127.12-27.97,198.17-83.12,17.11-12.9,25.78-33.87,25.78-62.35,0-23-20.85-36.24-62.01-39.39,14.15-6.99,29.14-15.69,44.69-25.92,17.41,16.1,30.22,26.58,38.01,31.1,11.81,7.61,27.59,12.43,42.47,13.71,117.53,10.12,187.55-24.54,227.94-43.9,12.21-6.75,22.75-15.31,31.38-25.53,3.92-5.15,10.36-14.82,19.14-28.78,8.04,8.42,19.55,16.34,34.27,23.57,14.77,7.12,25.61,10.59,33.16,10.59,5.22,0,11.2-6.05,18.8-19.05,7.2-12.3,10.85-24.54,10.85-36.39,0-10.3-4.1-22.28-12.18-35.59ZM844.95,847.48c-11.69-7.15-14.7-9.96-15.46-10.96,2.05-2.94,7.81-4.49,16.76-4.49,3.42,0,7.75,3.14,12.53,9.08,4.37,5.43,7.24,10.95,8.55,16.45-5.26-.84-12.76-4.22-22.37-10.08h0ZM478.03,868.91c-5.5,2.37-13.36,6.02-23.74,11.04-6.96-6.56-13.05-11.71-18.18-15.4,9.46.25,23.5,1.71,41.91,4.36Z"/>
    </clipPath>
    <linearGradient id="linear-gradient" x1="659.77" y1="946.08" x2="774.13" y2="880.9" gradientUnits="userSpaceOnUse">
      <stop offset="0" stop-color="#299d4a"/>
      <stop offset=".51" stop-color="#757575" stop-opacity=".4"/>
      <stop offset="1" stop-color="#299d4a"/>
    </linearGradient>
    <linearGradient id="linear-gradient1" x1="455.09" y1="897.16" x2="497.94" y2="887.31" gradientUnits="userSpaceOnUse">
      <stop offset="0" stop-color="#757575" stop-opacity=".4"/>
      <stop offset="1" stop-color="#299d4a"/>
    </linearGradient>
    <linearGradient id="linear-gradient2" x1="438.64" y1="912.19" x2="399.23" y2="932.38" gradientUnits="userSpaceOnUse">
      <stop offset="0" stop-color="#757575" stop-opacity=".4"/>
      <stop offset="1" stop-color="#299d4a"/>
    </linearGradient>
    <linearGradient id="linear-gradient3" x1="360.34" y1="960.35" x2="388.51" y2="985.34" gradientUnits="userSpaceOnUse">
      <stop offset="0" stop-color="#1d5838" stop-opacity=".4"/>
      <stop offset="1" stop-color="#299d4a"/>
    </linearGradient>
    <linearGradient id="linear-gradient4" x1="438.53" y1="1017.92" x2="416.2" y2="998.25" xlink:href="#linear-gradient3"/>
    <linearGradient id="linear-gradient5" x1="253.86" y1="1057.47" x2="126.8" y2="1016.01" xlink:href="#linear-gradient3"/>
    <linearGradient id="linear-gradient6" x1="810.21" y1="824.12" x2="854.95" y2="812.12" xlink:href="#linear-gradient3"/>
    <linearGradient id="linear-gradient7" x1="891.79" y1="872.3" x2="884.87" y2="824.8" xlink:href="#linear-gradient3"/>
    <linearGradient id="linear-gradient8" x1="802.06" y1="866.32" x2="793.64" y2="876.24" xlink:href="#linear-gradient3"/>
    <clipPath id="clippath-1">
      <path class="st65" d="M657.17,179.66c11.28,37.02,19.97,74.78,27.28,112.93,11.31,59.02,16.53,122.85,30.03,180.61,7.34,31.41,21.07,63.79,55.57,66.23-13.19-16.59-25.5-34.9-28.41-57.15-10.44-79.92,61.02-118.75,126.21-98.84,7.18,2.19,45.6,19.83,44.37,27.8-5.98,6.24-17.72-1.3-25.88-2.76-40.07-7.21-93.13,9.18-123.77,36.47,1.73,43.32,48.43,88.02,88.72,84.07,20.5-2.01,52.97-23.75,69.64-36.94,4.76-3.77,31.63-31.39,35.02-27.92.58,11.57-3.93,34.24-10.95,42.89-9.53,11.75-44.29,36.46-57.89,44.98-62.68,39.3-164.17,60.81-186.3-39.55-3.55,8.98-4.1,18.88-6.89,28.42-10.03,34.21-28.18,66.56-59.02,82.62-23.75,12.37-52.24,18.84-77.45,27.29l-2.86-4.43c43.14-39.9,130.98-78.02,132.68-149.03,1.36-56.41-17.81-148.17-28.7-205.64-4.16-21.95-16.68-60.19-14.66-80.24,1.1-10.91,6.23-20.91,8.21-31.55l5.03-.26Z"/>
    </clipPath>
    <linearGradient id="linear-gradient9" x1="759.15" y1="438.98" x2="807.07" y2="408.65" xlink:href="#linear-gradient3"/>
    <linearGradient id="linear-gradient10" x1="797.34" y1="551.89" x2="748.74" y2="560.86" xlink:href="#linear-gradient3"/>
    <linearGradient id="linear-gradient11" x1="696.6" y1="489.73" x2="676.31" y2="534.77" xlink:href="#linear-gradient3"/>
    <linearGradient id="linear-gradient12" x1="869.06" y1="535.38" x2="933.18" y2="495.87" xlink:href="#linear-gradient3"/>
    <clipPath id="clippath-2">
      <path class="st65" d="M1657.13,630.09v-.03c-17.56-81.67-60.35-151.13-91.88-193.74-11.8-14.86-24.24-29.13-37.05-42.79-3.05-3.24-6.11-6.45-9.19-9.63-7.9-6.24-10.14,5.5-12.71,11.86-11.53,28.56-4.85,25.71-1.18,53.36,8.95,67.49,21.26,141.67,27.3,208.6,1.01,11.12,4.17,43.35-1.54,50.91-14.31,18.94-56.47,17.84-76.53,10.18,3.63-4.64,3.25-4.05,5.6-7.5,17.6-25.84,25.21-67.61,7.84-96.11-27.67-45.4-61.74,9.8-67.9,40.76-3.59,18.05-1.83,32.13,2.56,49.91-41.74,12.44-76.34,30.27-107.62,62.3-23.71,24.28-56.11,80.58-94.92,68.63-33.28-10.23-10-68.98-.33-90.05,3.96-8.63,14.86-22.31,15.87-30.76.38-3.08.93-6.11-3.07-5.06-30.61,32.32-62.6,109.2-22.89,146.93,50.1,47.59,95.61-41.48,128.17-69.17,30.14-25.62,66.19-34.21,101.24-49.39,7.94,5.41,12.42,12.28,21.34,17.18,24.99,13.72,70.36,15.15,90.53-7.62,48.97-55.29,19.33-180.53,10.25-250.8-1.67-12.94-4.32-30.57-4.32-30.57,72.89,50.15,112.2,196.37,116.73,253.36.45,5.62,1.08,30.74,6.02,24.91,4.68-39.56,3.62-79.91-2.31-115.7ZM1430.48,694.29c-8.17,2.41-18.41-25.51-14.55-36.58,3.66-10.5,15.09-17.64,16.49-18.14,13.87-4.96,22.38,9.86,26.99,28.36.55,2.2.44,4.56-.53,6.6-4.61,9.68-18.67,16.89-28.39,19.76Z"/>
    </clipPath>
    <linearGradient id="linear-gradient13" x1="1425.06" y1="701.1" x2="1414.45" y2="684.34" gradientUnits="userSpaceOnUse">
      <stop offset="0" stop-color="#757575" stop-opacity=".4"/>
      <stop offset="1" stop-color="#299d4a"/>
    </linearGradient>
    <linearGradient id="linear-gradient14" x1="1519.4" y1="437.06" x2="1526.05" y2="513.21" xlink:href="#linear-gradient13"/>
    <linearGradient id="linear-gradient15" x1="1600.52" y1="559.05" x2="1615.61" y2="652.6" xlink:href="#linear-gradient3"/>
    <linearGradient id="linear-gradient16" x1="1264.21" y1="761.96" x2="1176.98" y2="861.85" xlink:href="#linear-gradient3"/>
    <clipPath id="clippath-3">
      <path class="st65" d="M555.86,495.24l-55.48,20.07c-4.39,4.27,2.94,18.72-4.93,23.27-2.81.13-4.56-18.38-10.79-17.75l-82.09,37.91c-.39,2.5,1.88,2.01,3.57,2.57,27.71,9.18,69.62,5.7,65.21,50.37-3.83,38.76-25.48,53.32-53.29,72.43-56.36,38.73-177.71,106.24-234.42,38.02-35.58-42.8-20.64-122.99,7.39-165.35,2.81-4.25,5.76-9.78,11.33-9.05,2.94,2.94-13.16,37.23-15.24,43.94-33.23,107.45,46.7,136.47,128.92,107.94,46.93-16.29,95.61-45.25,135.22-76.15,2.2-4.85-7.38-9.73-10.61-11.1-29.12-12.32-67.8-10.14-96.81-25.84-2.87-4.43,5.73-29.1,8.77-33.97,4.93-7.89,22.02-16.41,30.32-21.13,27.15-15.43,56.9-26.56,83.54-42.52-25-23.16-13.2-75.67,21.45-77.62,18.61-1.05,50.02,19.17,64.3,31.9,21.3,18.99,10.18,27.65,3.65,52.07ZM485.29,481.5l33.59-13.05c-13.23-9.76-30.89-21.45-47-15.6-1.1,12.21,5.59,20.16,13.41,28.65Z"/>
    </clipPath>
    <linearGradient id="linear-gradient17" x1="479.52" y1="488.87" x2="467.76" y2="466.47" xlink:href="#linear-gradient3"/>
    <linearGradient id="linear-gradient18" x1="493.73" y1="513.37" x2="498.21" y2="529.05" xlink:href="#linear-gradient3"/>
    <linearGradient id="linear-gradient19" x1="371.87" y1="564.45" x2="405.19" y2="593.85" xlink:href="#linear-gradient3"/>
    <clipPath id="clippath-4">
      <path class="st65" d="M878.39,236.06l-22.42-.98c14.49,23.27,32.17,44.5,50.27,64.65,61.25,68.16,135.81,115.88,131.37,223.03-.12,2.79-1.13,15.97-3.35,16.03-6.35-16.09-9.59-33.12-16.05-49.22-28.84-71.84-95.96-121.05-143.23-178.58-20.28-24.67-34.99-53.3-53.75-77.13-2.24-2.84-6.66-4.23-7.81-6.42-.89-1.7-.87-31.34-.59-35.87.14-2.18.53-7.86,3.63-6.58,17.21,13.51,37.5,25.5,53.65,40.35,1.48,1.36,10.25,8.79,8.27,10.72Z"/>
    </clipPath>
    <linearGradient id="linear-gradient20" x1="834.85" y1="219.94" x2="869.83" y2="277.59" xlink:href="#linear-gradient3"/>
    <clipPath id="clippath-5">
      <path class="st65" d="M511.37,303.38c31.51,48.84,82.47,79.5,119.24,122.06,25.16,29.12,45.67,72.77,33.51,112.39-8.47-16.52-13.89-34.21-23.52-50.21-29.35-48.77-79.71-80.84-116.93-121.86-15.13-16.68-26.81-36.63-41.18-52.94-3.39-3.85-16.09-13.7-16.98-15.13-4.04-6.48,2.02-31.4-1-40.61l4.22-.09,64,41.85c5.98,9.05-18.35,2.85-21.35,4.55Z"/>
    </clipPath>
    <linearGradient id="linear-gradient21" x1="478.09" y1="293.4" x2="518.25" y2="342.62" xlink:href="#linear-gradient3"/>
    <linearGradient id="linear-gradient22" x1="624.93" y1="439.65" x2="642.06" y2="437.67" xlink:href="#linear-gradient3"/>
    <clipPath id="clippath-6">
      <path class="st65" d="M1114.63,195.45l29.88,84.72c-4.6,13-12.54-7.03-19.41-9.47,2.35,30.98,3.59,62.17,5.9,93.17,5.11,68.76,17.98,143.21,1.57,211-.65,2.69-11.79,42.81-17.73,36.2-.34-21.91,3.87-43.79,3.94-65.66.22-59.46-8.09-119.7-11.76-178.79-2.84-45.75-.83-93.86-9.77-138.32l12.55-32.57,4.83-.28Z"/>
    </clipPath>
    <linearGradient id="linear-gradient23" x1="1108.86" y1="246.87" x2="1108.86" y2="312.19" xlink:href="#linear-gradient3"/>
    <clipPath id="clippath-7">
      <path class="st65" d="M695.52,1371.27c0-25.93-24.39-40.55-72.51-43.45-12.41-.53-24.97-2.82-37.33-6.8,8.82-6,17.64-11.16,26.2-15.35,85.64-37.83,146.42-64.05,180.55-77.88,1.65-.55,4.12-3.1,10.95-17.92,6.75-14.69,7.61-18.12,7.61-19.47v-.35l-.15-.31c-.85-1.75-1.46-3.01-32.75,10.41-57.2,24.64-92.01,37.13-103.46,37.13-22.89,0-45.45-10.52-67.03-31.26-21.57-20.74-32.51-41.7-32.51-62.3,0-2.44,3.97-7.56,30.54-14.38,23.19-5.66,50.45-8.53,81-8.53,19.67,0,33.17,1.41,40.13,4.19,15.73,6.05,19.03,4.92,20.2,2.86.56-.84.72-1.85.47-2.93-.67-2.86-4.43-8.34-29.19-22.72-21.83-13.51-46.29-20.36-72.71-20.36s-49.26,8.99-69.29,26.71c-20.09,17.78-30.27,39.12-30.27,63.42s10.08,48.21,29.98,69.55c14.67,14.93,28.24,24.86,40.4,29.57-23.57,11.41-49.59,24.26-63.54,38.25-6.69,6.7-7.12,10.02-8.37,19.85-.17,1.35-.36,2.83-.59,4.47l-.02.14v.14c.35,7.11,1.5,12.69,6.11,18.47,10.48,13.25,32.68,21.67,66.01,25.04,46.64,4.13,56.43,12.41,56.43,18.63,0,3.81-9.46,14.93-72.79,46.61-55.77,27.46-105.1,41.39-146.63,41.39-29.45,0-53.32-7.66-70.97-22.79-25.21-20.45-37.99-49.44-37.99-86.18,0-15.71,2.85-30.93,8.47-45.27,10.28-26.74,8.84-30.42,6.68-31.77l-.15-.08c-1.27-.6-2.68-.62-4.07-.04-3.12,1.29-8.29,5.89-17.26,30.83-9.44,25.16-14.22,50.69-14.22,75.87,0,45.95,15.47,81.21,45.98,104.82,20.15,15.26,46.24,23,77.54,23,67.1,0,141.16-31.08,220.11-92.37,18.86-14.22,28.43-37.38,28.43-68.85Z"/>
    </clipPath>
    <linearGradient id="linear-gradient24" x1="569.16" y1="1118.11" x2="644.52" y2="1101.3" xlink:href="#linear-gradient3"/>
    <linearGradient id="linear-gradient25" x1="636.7" y1="1280.18" x2="601.92" y2="1301.63" xlink:href="#linear-gradient3"/>
    <linearGradient id="linear-gradient26" x1="683.14" y1="1240.86" x2="740.53" y2="1217.67" xlink:href="#linear-gradient3"/>
    <linearGradient id="linear-gradient27" x1="565.03" y1="1317.56" x2="603.88" y2="1345.39" xlink:href="#linear-gradient3"/>
    <linearGradient id="linear-gradient28" x1="691.12" y1="1374.29" x2="654.6" y2="1367.33" xlink:href="#linear-gradient3"/>
    <linearGradient id="linear-gradient29" x1="447.52" y1="1403.99" x2="344.18" y2="1436.92" xlink:href="#linear-gradient3"/>
    <clipPath id="clippath-8">
      <path class="st65" d="M1342.14,476.88c-1.42-6.63-17-42.43-21.84-43.54-5.48-1.26-13.7,34.23-13.13,39.67.95,9.16,20.94,35.02,19.55,45.58-1.27,9.67-38.86,23.58-48.46,24.14-9.88-18.11-16.79-37.44-34.41-49.02-30.73-20.18-58.7,9.56-66.82,40.31-16.14,61.11,37.64,64.37,79.23,56.41,9.02,14.04,8.61,22.02-2.23,33.75-59.12,63.96-260.31,147.01-320.89,52.09-.17-.27-.36-.56-.57-.86-1.51-2.58-3.05-5.52-4.53-8.84-.37-.84-.74-1.71-1.11-2.59-1.73-4.19-3.33-8.92-4.67-14.22-.2-.77-.39-1.55-.57-2.34-1.65-7.14-2.79-15.25-3.11-24.37.3-19.35,4.91-38.32,8.36-57.49-6.89-4.4-9.38,7.14-11.61,12.76-3.71,9.32-6.41,19.26-8.31,29.47-.02,0-.07.01-.07.01,0,0-4.89,17.03-3.75,40.76.18,3.69.5,7.53,1.01,11.5.41,3.2.95,6.48,1.62,9.83,2.17,10.73,5.83,22.07,11.65,33.36,1.34,2.47,2.75,4.88,4.26,7.23,12.55,19.53,30.82,34.78,51.88,43.21,79.71,31.9,199.86-23.22,262.82-76.23,31.23-26.29,43.22-47.51,46.27-91.55,14.58-6.92,29.62-11.58,41.49-23.61,18.57-18.82,23.56-59.24,17.94-85.42ZM1198.24,543.64c4.47-27.1,33.11-13.78,41.54,4.9-14.51,1.32-27.91,1.4-41.54-4.9Z"/>
    </clipPath>
    <linearGradient id="linear-gradient30" x1="1269.5" y1="584.05" x2="1267.28" y2="623.4" xlink:href="#linear-gradient13"/>
    <linearGradient id="linear-gradient31" x1="1275.13" y1="552.23" x2="1257.39" y2="517.31" xlink:href="#linear-gradient13"/>
    <linearGradient id="linear-gradient32" x1="1331.78" y1="522.72" x2="1290.97" y2="543.45" xlink:href="#linear-gradient3"/>
    <linearGradient id="linear-gradient33" x1="988.99" y1="690.63" x2="932.64" y2="693.22" xlink:href="#linear-gradient3"/>
    <clipPath id="clippath-9">
      <path class="st65" d="M1059.23,307.1c-4.07-28.71-7.75-57.57-10.86-86.42.12-1.72,1.99-1.69,3.61.12,2.92,3.27,5.33,9.06,10.11,11.1l3.14.15,2.33-4.54-34.82-84.78c-3.5-.62-3.93,1.92-5.3,4.43-1.69,3.09-10.48,27.66-10.38,30.31.17,4.41,3.05,7.75,3.65,11.4,4.84,29.69,5.79,59.94,9.67,89.75,8.65,66.5,23.62,135.89,29.88,202.16,2.23,23.56,2.01,34.98-11.32,53.95-32.37,46.04-105.81,94.27-110.84,96.6-10.06,4.67-1.85,4.64,1.05,4.42,6-.34,29.79-4.89,40.13-8.46,30.25-9.88,45.33-18.38,66.51-48.12,57.43-80.63,26.46-180.34,13.44-272.08Z"/>
    </clipPath>
    <linearGradient id="linear-gradient34" x1="1052.82" y1="515" x2="996.02" y2="538.93" xlink:href="#linear-gradient3"/>
    <linearGradient id="linear-gradient35" x1="1039.33" y1="191.15" x2="1045.16" y2="283.78" xlink:href="#linear-gradient3"/>
    <clipPath id="clippath-10">
      <path class="st65" d="M1692.58,963.59l-.06-.39c-8.98-46.2-26.65-93.39-52.53-140.25-7.93-14.32-16.47-28.36-25.47-41.81-5.26-7.32-11-14.92-17-22.52-13.02-17.04-21.89-26.34-22.26-26.73l-.21-.19c-2.39-2.1-4.78-2.84-7.07-2.2-1.44.39-2.56,1.26-3.5,2.43-.04.04-.06.08-.1.12-1.87,2.35-2.97,5.83-3.98,9.03-.33,1.05-.62,2.06-.97,2.95-7.25,19.87-6.22,24.61-3.98,35.01.87,4,1.94,8.98,2.82,16.22l.08.49c.16,1.44.33,2.89.52,4.33l.02.19c1.18,9.87,2.54,20.73,4.16,33.16.91,7.19,1.86,14.42,2.8,21.66,4.58,35.2,9.33,71.59,12.82,106.29l.06.43c1.05,10.51,1.88,19.68,2.56,28.05l.1,1.2c1.59,19.37.5,41.56.06,48.61-.02.02-.02.04,0,.06-.1,1.4-.17,2.18-.17,2.21-.35,1.26-2.31,4.31-12.16,9.58-1.01.54-2.02,1.07-3.03,1.57-1.03.49-2.04.97-3.03,1.4-2.99,1.28-5.81,2.27-8.45,2.91-.66.17-1.3.31-1.94.43-1.9.35-3.71.54-5.42.54-.89,0-1.81.08-2.76.25-.43-.1-.85-.16-1.28-.16-19.95,0-33.88-7.23-42.57-22.13-4.6-7.83-6.18-15.83-4.66-23.84,6-.76,20.52-.68,43.27.25.21,0,.45-.02.68-.08.16-.04.31-.08.49-.16,1.81-.72,4.45-4,10.9-17.85,7.15-15.35,8.08-19.19,8.08-20.83,0-2.56,0-2.72-35.59-2.72h-.18c-35.63-.76-71.88-5.01-107.73-12.65-23.45-5.34-51.23-12.84-82.61-22.28-21.47-6.28-35.42-9.07-42.76-8.53-.95.14-2.08.33-3.4.6-.68.14-1.4.29-2.2.47-.76.16-1.55.33-2.41.52-.39.1-.8.17-1.2.27-.49.12-.99.23-1.52.35-2.88.68-6.2,1.52-10.02,2.49-7.85,2.1-12.67,3.73-15.68,5.03-.19.08-.39.17-.56.25-.52.23-.97.47-1.38.68-.02,0-.04,0-.06.02-.27.14-.52.29-.76.43-.16.08-.29.17-.41.25-.91.56-1.44,1.05-1.79,1.5-1.61,2.02-5.25,7.95-11.13,18.15-7.5,12.98-8.22,16.51-7.34,18.18.29,1.77,3.05,2.12,29.51,3.57,22.4,1.03,41.09,2.84,55.54,5.36l1.01.17.06-.06.06.02.7-.7c2.16-2.14,3.92-3.92,5.34-5.34,32.02,7.77,57.04,13.77,74.5,17.87-58.73,21.45-97.56,34.97-120.9,40.37-94.59,21.89-184.04,33.22-265.87,33.65-2.99,0-5.19.02-6.55.06-36.97.78-69.92,0-97.97-2.29-23.1-1.28-43.17-4.12-59.64-8.41-18.69-4.8-33.49-10.92-43.98-18.16-11.05-8.04-19.7-16.55-25.7-25.29-10.86-15.95-20.4-56.61-28.34-120.9-.31-2.6-.64-5.23-.95-7.91-.84-7.34-1.67-14.55-2.53-21.6-9.64-81.19-19.41-142.4-29.06-182.17-3.61-14.65-8.55-29.76-14.71-44.9-8.18-20.46-9.77-20.46-11.42-20.46-.27,0-.51,0-.76.08-.06.02-.12.04-.19.06-.04.02-.08.04-.14.06-1.3.76-2.86,4.27-7.69,20.44-5.98,19.87-5.36,21.41-4.9,22.57,13.19,26.62,24.77,73.42,34.45,139.06,6.39,49.79,12.72,100.28,18.86,150.08,7.71,55.78,21.58,95.35,41.23,117.58,15.89,18.5,48.14,31.14,95.93,37.61,15.35,1.53,30.52,2.7,45.17,3.46,3.57.1,7.6.23,12.08.39,13.66.47,32.07,1.07,54.81,1.07,65.1,0,165.6-5.05,291.43-33.34,1.03-.21,2.08-.47,3.13-.72,32.62-7.71,76.16-23.84,130.81-44.08,9.91-3.67,20.2-7.48,30.79-11.37,3.46-1.09,6.84-2.08,10.16-2.99,1.77-.49,3.54-.93,5.28-1.36,1.42-.35,2.84-.68,4.24-.97l1.81-.41c2.23-.47,4.45-.89,6.62-1.26,1.65-.29,3.26-.54,4.86-.78,1.61-.23,3.19-.43,4.74-.6,3.9-.43,7.67-.68,11.29-.76-3.32,16.98-4.7,27.98-4.2,33.49.52,15.08,5.93,27.8,15.95,37.86,10.08,10.08,22.85,15.19,37.94,15.19.85,0,1.71-.08,2.62-.25.47.1.95.16,1.42.16,2.84,0,5.59-.14,8.24-.45.99-.1,1.98-.21,2.95-.37.85-.14,1.71-.27,2.54-.43.02,0,.04,0,.06-.02.76-.14,1.52-.29,2.25-.47.23-.04.47-.1.68-.16.51-.12.99-.25,1.48-.39,1.59-.41,3.15-.89,4.66-1.46.47-.17.91-.35,1.36-.52,1.09-.43,2.18-.89,3.22-1.4.52-.25,1.05-.51,1.57-.78,1.55-.8,3.05-1.67,4.51-2.62.49-.33.95-.64,1.44-.97,5.87-4.08,10.88-9.48,14.98-16.14.1-.16.21-.31.31-.47,31.26-44.02,23.33-136.23,13.19-205.95-2.25-15.62-3.94-37.11-5.28-49.37,51.44,71.78,70.5,157.52,65.88,235.23-9.29,156.2-94.22,264.41-122.14,299.96-7.44,9.46-10.39,17.31-11.56,22.24-.45,1.85.37,3.75,1.98,4.72.7.41,1.46.6,2.21.6,1.05,0,2.06-.37,2.88-1.09,9.83-8.76,44.64-41.46,79.48-93.93,44.61-67.18,71.57-139.06,80.12-213.64,1.09-9.56,1.81-19.47,2.14-29.45,1.07-26.85-.35-54.2-4.06-79.13Z"/>
    </clipPath>
    <linearGradient id="linear-gradient36" x1="1574.12" y1="781.23" x2="1579.5" y2="879.92" xlink:href="#linear-gradient13"/>
    <linearGradient id="linear-gradient37" x1="1492.05" y1="1004.68" x2="1495.64" y2="1058.51" gradientUnits="userSpaceOnUse">
      <stop offset="0" stop-color="#757575" stop-opacity=".4"/>
      <stop offset="1" stop-color="#299d4a"/>
    </linearGradient>
    <linearGradient id="linear-gradient38" x1="915.4" y1="1092.96" x2="1031.88" y2="1094.38" gradientTransform="translate(2.82 -1.16)" gradientUnits="userSpaceOnUse">
      <stop offset="0" stop-color="#299d4a"/>
      <stop offset=".52" stop-color="#757575" stop-opacity=".4"/>
      <stop offset="1" stop-color="#299d4a"/>
    </linearGradient>
    <linearGradient id="linear-gradient39" x1="1425.82" y1="1009.61" x2="1387.77" y2="1033.79" xlink:href="#linear-gradient3"/>
    <linearGradient id="linear-gradient40" x1="1284.51" y1="957.79" x2="1278.11" y2="974.86" xlink:href="#linear-gradient3"/>
    <linearGradient id="linear-gradient41" x1="1580.25" y1="1054.37" x2="1526.91" y2="1076.78" xlink:href="#linear-gradient3"/>
    <linearGradient id="linear-gradient42" x1="749.67" y1="768.82" x2="735.14" y2="989.33" xlink:href="#linear-gradient3"/>
    <linearGradient id="linear-gradient43" x1="1627.72" y1="1086" x2="1568.87" y2="1185.58" xlink:href="#linear-gradient3"/>
    <clipPath id="clippath-11">
      <path class="st65" d="M1401.77,1080.13c-2.45-3.65-3.48-3.65-4.27-3.65-1.3,0-2.64,0-9.05,15.83-1.34,3.69-3.13,8.43-5.34,14.18-1.15,2.99-2.41,6.26-3.77,9.77-.25,1.81-.43,3.85-.49,6.12.35,2.54.99,5.46,1.2,7.91,8.51,12.49,11.05,47.97,14.74,71.52,7.38,41.54,9.17,77.61,13.49,107,4.53,30.89,7.46,55.06,8.96,72.46.8,9.38,1.19,16.8,1.19,22.24,0,3.15-4.51,7.13-13.54,11.97-9.03,4.86-16.82,7.27-23.37,7.27-.02,0-.03,0-.05,0-.08,0-.15-.03-.23-.03-12.57,0-22.38-4.06-29.45-12.17-5.76-6.81-7.72-17.54-5.89-32.2.52-5.24-.27-7.86-2.36-7.86-6.55,2.62-11.39,4.98-14.53,7.07-25.91,17.01-62.69,30.76-110.33,41.23-19.26,4.24-33.04,6.76-41.34,7.57,7.28-2.09,14.68-6.62,22.19-13.64,16.49-15.18,24.73-34.55,24.73-58.1,0-13.09-7.53-25.13-22.58-36.12-15.05-10.99-31.6-16.89-49.67-17.67-29.31-1.05-81.34,29.3-108.36,55.76-10.01,9.8-17.68,15.98-28.67,30.62-14.93,19.89-25.39,33.63-31.41,41.23-9.94,1.05-20.68,1.58-32.2,1.58-12.41,0-26.31-.52-41.63-1.91-13.02-37.76-30.99-56.65-53.94-56.65-13.87,0-25.78,7.07-35.73,21.2-8.9,12.83-13.36,25.92-13.36,39.26,0,14.92,7.72,25.13,23.17,30.62,7.07,2.36,21.47,4.45,43.19,6.29,8.64.52,17.93,1.04,27.88,1.57.53,2.88.79,5.1.79,6.67,0,10.47-18.85,29.84-56.54,58.11-41.36,30.88-76.43,46.32-105.22,46.32-20.42,0-36.65-7.07-48.69-21.2-11.26-13.09-16.89-29.71-16.89-49.86,0-11.78,1.44-23.83,4.32-36.13,2.88-12.3,4.33-18.45,4.33-18.45,0-.78-.26-1.31-.79-1.57-3.14-.78-7.33,7.59-12.57,25.13-5.76,18.85-8.64,37.43-8.64,55.76,0,25.39,6.02,45.8,18.06,61.25,13.09,17.01,32.07,25.52,56.93,25.52,26.44,0,57.59-12.96,93.44-38.87,31.15-22.51,54.71-45.41,70.67-68.71,8.64-12.83,12.96-27.49,12.96-43.98,8.11,0,23.22-.2,45.34-.59,2.92-.05,5.65-.1,8.22-.14h0c27.74,1.05,58.49-2.09,92.26-9.42,53.71,15.19,165.78-.87,195.64-11.6,32.07-11.51,57.78-24.34,77.15-38.48,2.88,34.55,16.3,53.75,40.04,51.82,27.99-2.27,57.9-24.81,66.89-55.5,2.89-9.91,6.24-45.31,3.91-70.32-6.14-65.85-9.49-107.71-20.3-177.99,32.27,52.34,51.44,103.49,59,143.76,28.29,150.52-83.91,223.34-105.47,237.85-25.68,17.29-5.83,21.8-5.83,21.8,80.92-35.8,119.44-104.71,134.03-150,57.66-179.02-76.29-308.47-102.27-331.45ZM851.1,1427.59c-12.57-.79-18.85-3.8-18.85-9.03,0-6.55,4.32-9.82,12.96-9.82,9.42,0,19.36,6.67,29.83,20.02-1.05,0-9.03-.39-23.95-1.17ZM1002.82,1428.82c50.78-61.25,96.06-91.22,135.84-89.9,18.06.78,34.03,6.93,47.9,18.45,11.26,9.16,16.89,16.36,16.89,21.59,0,4.19-14.66,11.12-43.98,20.81-40.83,13.35-93.05,23.03-156.65,29.05Z"/>
    </clipPath>
    <linearGradient id="linear-gradient44" x1="1401.46" y1="1131.81" x2="1411.8" y2="1207.67" xlink:href="#linear-gradient3"/>
    <linearGradient id="linear-gradient45" x1="1135.26" y1="1437.67" x2="1151.51" y2="1464.27" xlink:href="#linear-gradient3"/>
    <linearGradient id="linear-gradient46" x1="990.95" y1="1436.53" x2="1029.86" y2="1394.66" xlink:href="#linear-gradient3"/>
    <linearGradient id="linear-gradient47" x1="907.1" y1="1453.64" x2="956.84" y2="1456.46" xlink:href="#linear-gradient3"/>
    <linearGradient id="linear-gradient48" x1="894.73" y1="1448.85" x2="851.09" y2="1459.17" xlink:href="#linear-gradient3"/>
    <linearGradient id="linear-gradient49" x1="1481.57" y1="1372.26" x2="1429.75" y2="1395.57" xlink:href="#linear-gradient3"/>
    <linearGradient id="linear-gradient50" x1="1341.86" y1="1396.46" x2="1362.59" y2="1441.16" xlink:href="#linear-gradient3"/>
    <linearGradient id="linear-gradient51" x1="1161.54" y1="1358.62" x2="1147.21" y2="1388.7" xlink:href="#linear-gradient1"/>
    <linearGradient id="linear-gradient52" x1="905.06" y1="1495.43" x2="837.01" y2="1551.25" xlink:href="#linear-gradient1"/>
    <linearGradient id="linear-gradient53" x1="706.68" y1="1556.79" x2="678.51" y2="1558.92" xlink:href="#linear-gradient1"/>
    <linearGradient id="linear-gradient54" x1="817.65" y1="1414.93" x2="823.5" y2="1438.86" xlink:href="#linear-gradient1"/>
    <clipPath id="clippath-12">
      <path class="st65" d="M1005.69,1179.07c-7.6-43.42-32.58-252.13-40.51-295.24,13.22,16.92,21.65,24.43,25.29,22.51.66-.32.98-1.12.98-2.39,0-7.66-7.68-28.26-23.04-61.79-15.37-33.53-24.05-50.29-26.03-50.29-.99,0-4.54,8.14-10.66,24.43-6.11,16.28-9.17,25.23-9.17,26.83,0,1.92,1.98,4.31,5.95,7.18,4.3,32.89,30.44,251.97,43.99,326.37,12.55,69.29,20.98,123.1,25.28,161.41,1.32,13.41,2.48,26.83,3.47,40.24.99,13.41,2.64,20.12,4.95,20.12,3.97,0,7.44-7.66,10.42-22.99,3.63-17.24,5.45-37.52,5.45-60.83,0-28.1-5.45-73.29-16.36-135.56Z"/>
    </clipPath>
    <linearGradient id="linear-gradient55" x1="939.29" y1="856.57" x2="948.69" y2="948.87" xlink:href="#linear-gradient3"/>
    <linearGradient id="linear-gradient56" x1="1425.88" y1="715.87" x2="1462.3" y2="739.05" gradientUnits="userSpaceOnUse">
      <stop offset="0" stop-color="#757575" stop-opacity=".4"/>
      <stop offset="1" stop-color="#299d4a"/>
    </linearGradient>
  </defs>
  <g>
    <g>
      <path class="st65" d="M886.41,812.58c-8.28-15.46-18.03-23.29-29.01-23.29-15.85,0-30.6,11.91-43.85,35.4h-2.12l-.58.76c-6.91,8.97-13.28,18.32-18.92,27.81-7.74,10.21-16.47,17.05-26.39,23.7-14.8,9.92-38.64,21.28-68.9,31.54-45.92,15.57-112.86,29.58-165.79,21.02-17.91-2.9-36.21-12.69-53.08-26.49,23.24-12.54,40.26-19.38,50.61-20.35l1.09-.1.48-.98c13.63-27.95,13.89-34.11,12.15-36.59l-.42-.44c-1.45-1.09-6.44-3.38-33.01-10.73-24.67-6.16-48.13-9.29-69.73-9.29-44.49,0-72.72,5.56-86.29,17l-.36.41c-.72,1.08-2.27,4.13-7.33,18.12-6,16.55-5.42,17.14-4.36,18.2l.87.87,7.56-2.67c5.45-1.49,12.4-2.24,20.65-2.24,12.57,0,28.37,8.14,46.98,24.2-32.24,16.77-58.2,26.75-77.23,29.69h-1.13c-7.73,0-16.95,4.14-16.95,23.87,0,23.63,22.34,37.88,66.41,42.34,43.66,3.88,50.17,11.78,50.17,16.15,0,2.65-6.34,11.97-65.09,41.35-50.03,24.63-94.27,37.12-131.5,37.12-26.33,0-47.65-6.83-63.42-20.35-22.5-18.25-33.91-44.15-33.91-76.98,0-14.05,2.55-27.66,7.57-40.47,9.4-24.46,8-27.88,5.76-29.28l-.2-.11c-1.3-.61-2.73-.63-4.13-.05-2.9,1.2-7.71,5.42-15.83,28.06-8.51,22.69-12.82,45.7-12.82,68.39,0,41.49,13.98,73.33,41.56,94.67,18.22,13.79,41.78,20.79,70.04,20.79,60.44,0,127.12-27.97,198.17-83.12,17.11-12.9,25.78-33.87,25.78-62.35,0-23-20.85-36.24-62.01-39.39,14.15-6.99,29.14-15.69,44.69-25.92,17.41,16.1,30.22,26.58,38.01,31.1,11.81,7.61,27.59,12.43,42.47,13.71,117.53,10.12,187.55-24.54,227.94-43.9,12.21-6.75,22.75-15.31,31.38-25.53,3.92-5.15,10.36-14.82,19.14-28.78,8.04,8.42,19.55,16.34,34.27,23.57,14.77,7.12,25.61,10.59,33.16,10.59,5.22,0,11.2-6.05,18.8-19.05,7.2-12.3,10.85-24.54,10.85-36.39,0-10.3-4.1-22.28-12.18-35.59ZM844.95,847.48c-11.69-7.15-14.7-9.96-15.46-10.96,2.05-2.94,7.81-4.49,16.76-4.49,3.42,0,7.75,3.14,12.53,9.08,4.37,5.43,7.24,10.95,8.55,16.45-5.26-.84-12.76-4.22-22.37-10.08h0ZM478.03,868.91c-5.5,2.37-13.36,6.02-23.74,11.04-6.96-6.56-13.05-11.71-18.18-15.4,9.46.25,23.5,1.71,41.91,4.36Z"/>
      <g class="st69">
        <path class="st67" d="M785.63,832.97s-52.22,59.11-120.69,64.53c-68.47,5.42-47.29,98.03-10.34,84.73,36.94-13.3,145.81-64.04,145.81-64.04v-36.45l-14.78-48.77Z"/>
        <path class="st19" d="M447.22,870.9s15.76,23.15,38.42,37.93c22.66,14.78,27.09-4.43,27.09-4.43l16.26-16.75-40.89-25.61s-5.91,7.39-20.2,8.37c-14.29.99-20.69.49-20.69.49Z"/>
        <path class="st0" d="M406.33,891.59s15.76,7.88,42.86,37.93c27.09,30.05-15.27,7.39-15.27,7.39l-22.66,8.87-11.82,1.97-37.44-38.42,44.33-17.73Z"/>
        <path class="st50" d="M416.49,938.36s-51.04,33.49-91.44,26.05c-40.4-7.44-24.45,18.61-24.45,18.61l71.24,53.69,45.72-28.71,11.7-62.2-12.76-7.44Z"/>
        <path class="st46" d="M460.08,969.2s-3.72,31.9-30.3,49.97c-26.58,18.08-72.3,10.1-72.3,10.1l68.58-88.25,28.18,7.97,5.85,20.2Z"/>
        <path class="st49" d="M428.71,1057.45s-158.42,101.01-227,49.44c-68.58-51.57-54.76-115.89-54.76-115.89l31.9-78.68-81.34-3.19s-27.64,73.9-24.99,83.46,18.08,125.46,29.77,135.03c11.7,9.57,165.87,40.93,181.81,37.75,15.95-3.19,84-27.64,84-27.64l60.6-80.27Z"/>
        <path class="st60" d="M809.01,819.62s8.76,11.53,29.98,23.52c21.22,11.99,10.61-6.46,10.61-6.46l23.98-7.84-15.22-45.2-36.9,3.69-12.45,32.28Z"/>
        <path class="st43" d="M854.67,851.91s18.91,12.91,53.5,10.61c34.59-2.31.92-54.88.92-54.88l-28.59-6.46-29.52,38.28,3.69,12.45Z"/>
        <path class="st25" d="M787.33,849.14s5.07,15.22,28.13,32.75c23.06,17.53-19.83,34.13-19.83,34.13l-29.52-61.8,21.22-5.07Z"/>
      </g>
    </g>
    <g>
      <path class="st65" d="M657.17,179.66c11.28,37.02,19.97,74.78,27.28,112.93,11.31,59.02,16.53,122.85,30.03,180.61,7.34,31.41,21.07,63.79,55.57,66.23-13.19-16.59-25.5-34.9-28.41-57.15-10.44-79.92,61.02-118.75,126.21-98.84,7.18,2.19,45.6,19.83,44.37,27.8-5.98,6.24-17.72-1.3-25.88-2.76-40.07-7.21-93.13,9.18-123.77,36.47,1.73,43.32,48.43,88.02,88.72,84.07,20.5-2.01,52.97-23.75,69.64-36.94,4.76-3.77,31.63-31.39,35.02-27.92.58,11.57-3.93,34.24-10.95,42.89-9.53,11.75-44.29,36.46-57.89,44.98-62.68,39.3-164.17,60.81-186.3-39.55-3.55,8.98-4.1,18.88-6.89,28.42-10.03,34.21-28.18,66.56-59.02,82.62-23.75,12.37-52.24,18.84-77.45,27.29l-2.86-4.43c43.14-39.9,130.98-78.02,132.68-149.03,1.36-56.41-17.81-148.17-28.7-205.64-4.16-21.95-16.68-60.19-14.66-80.24,1.1-10.91,6.23-20.91,8.21-31.55l5.03-.26Z"/>
      <g class="st30">
        <path class="st20" d="M763.88,456.18s-7.24-55.5-.34-67.22,78.94-34.82,78.94-34.82l-24.82,96.52-53.78,5.52Z"/>
        <path class="st8" d="M764.92,532.7s31.71,44.12,65.84,45.16c34.13,1.03-25.16,34.47-25.16,34.47l-69.29-2.76-8.27-106.86,36.88,29.99Z"/>
        <path class="st26" d="M679.16,407.53s17.85,115.22,34.89,139.15c17.04,23.94-18.66,32.05-18.66,32.05l-41.38-59.23,25.15-111.97Z"/>
        <path class="st38" d="M801.53,510.74s5.18,22.67,114,26.56c108.82,3.89,111.41-54.41,111.41-54.41l-75.78-36.92s-79.02,30.44-84.21,34.33c-5.18,3.89-65.42,30.44-65.42,30.44Z"/>
      </g>
    </g>
    <g>
      <path class="st65" d="M1657.13,630.09v-.03c-17.56-81.67-60.35-151.13-91.88-193.74-11.8-14.86-24.24-29.13-37.05-42.79-3.05-3.24-6.11-6.45-9.19-9.63-7.9-6.24-10.14,5.5-12.71,11.86-11.53,28.56-4.85,25.71-1.18,53.36,8.95,67.49,21.26,141.67,27.3,208.6,1.01,11.12,4.17,43.35-1.54,50.91-14.31,18.94-56.47,17.84-76.53,10.18,3.63-4.64,3.25-4.05,5.6-7.5,17.6-25.84,25.21-67.61,7.84-96.11-27.67-45.4-61.74,9.8-67.9,40.76-3.59,18.05-1.83,32.13,2.56,49.91-41.74,12.44-76.34,30.27-107.62,62.3-23.71,24.28-56.11,80.58-94.92,68.63-33.28-10.23-10-68.98-.33-90.05,3.96-8.63,14.86-22.31,15.87-30.76.38-3.08.93-6.11-3.07-5.06-30.61,32.32-62.6,109.2-22.89,146.93,50.1,47.59,95.61-41.48,128.17-69.17,30.14-25.62,66.19-34.21,101.24-49.39,7.94,5.41,12.42,12.28,21.34,17.18,24.99,13.72,70.36,15.15,90.53-7.62,48.97-55.29,19.33-180.53,10.25-250.8-1.67-12.94-4.32-30.57-4.32-30.57,72.89,50.15,112.2,196.37,116.73,253.36.45,5.62,1.08,30.74,6.02,24.91,4.68-39.56,3.62-79.91-2.31-115.7ZM1430.48,694.29c-8.17,2.41-18.41-25.51-14.55-36.58,3.66-10.5,15.09-17.64,16.49-18.14,13.87-4.96,22.38,9.86,26.99,28.36.55,2.2.44,4.56-.53,6.6-4.61,9.68-18.67,16.89-28.39,19.76Z"/>
      <g class="st61">
        <path class="st63" d="M1400.68,706.66s28.13-11.99,35.21-14.3c7.07-2.31.61-19.52.61-19.52l-46.58,19.06,10.76,14.76Z"/>
        <path class="st48" d="M1500.35,424.19s15.11,22.97,39.28,45.93,15.11,63.46,15.11,63.46l-58.62-13.9-7.25-93.68,11.48-1.81Z"/>
        <path class="st55" d="M1560.94,497.58s90.53,64.88,113.17,206.72c22.63,141.83-84.5,98.08-84.5,98.08l-28.67-304.79Z"/>
        <path class="st27" d="M1366.38,766.31s-26.64-.67-85.91,45.95c-59.27,46.62-92.57,31.97-96.56,5.33-4-26.64-.67-98.56,7.99-103.22s-43.95,36.63-45.28,39.29c-1.33,2.66,3.33,101.89,6.66,106.55,3.33,4.66,37.96,69.26,37.96,69.26l127.2-86.57,47.95-76.58Z"/>
      </g>
    </g>
    <g>
      <path class="st65" d="M555.86,495.24l-55.48,20.07c-4.39,4.27,2.94,18.72-4.93,23.27-2.81.13-4.56-18.38-10.79-17.75l-82.09,37.91c-.39,2.5,1.88,2.01,3.57,2.57,27.71,9.18,69.62,5.7,65.21,50.37-3.83,38.76-25.48,53.32-53.29,72.43-56.36,38.73-177.71,106.24-234.42,38.02-35.58-42.8-20.64-122.99,7.39-165.35,2.81-4.25,5.76-9.78,11.33-9.05,2.94,2.94-13.16,37.23-15.24,43.94-33.23,107.45,46.7,136.47,128.92,107.94,46.93-16.29,95.61-45.25,135.22-76.15,2.2-4.85-7.38-9.73-10.61-11.1-29.12-12.32-67.8-10.14-96.81-25.84-2.87-4.43,5.73-29.1,8.77-33.97,4.93-7.89,22.02-16.41,30.32-21.13,27.15-15.43,56.9-26.56,83.54-42.52-25-23.16-13.2-75.67,21.45-77.62,18.61-1.05,50.02,19.17,64.3,31.9,21.3,18.99,10.18,27.65,3.65,52.07ZM485.29,481.5l33.59-13.05c-13.23-9.76-30.89-21.45-47-15.6-1.1,12.21,5.59,20.16,13.41,28.65Z"/>
      <g class="st41">
        <path class="st56" d="M455.87,494.55s20.16-9.24,37.52-16.52c17.36-7.28-14.84-15.4-14.84-15.4l-2.8-4.48-35,9.24,15.12,27.16Z"/>
        <path class="st21" d="M476.87,524.23s23.8-9.52,32.76-12.32c8.96-2.8,1.96,17.92,1.96,18.76s-18.48,26.04-18.48,26.04l-16.24-32.48Z"/>
        <path class="st37" d="M402.56,558.74s-42.45,17.01-62.05,28.49c-19.6,11.48,36.68,21,36.68,21l40.6,7.28s13.72,0,13.72-.84,5.6-53.48,5.6-53.48l-34.55-2.45"/>
      </g>
    </g>
    <g>
      <path class="st65" d="M878.39,236.06l-22.42-.98c14.49,23.27,32.17,44.5,50.27,64.65,61.25,68.16,135.81,115.88,131.37,223.03-.12,2.79-1.13,15.97-3.35,16.03-6.35-16.09-9.59-33.12-16.05-49.22-28.84-71.84-95.96-121.05-143.23-178.58-20.28-24.67-34.99-53.3-53.75-77.13-2.24-2.84-6.66-4.23-7.81-6.42-.89-1.7-.87-31.34-.59-35.87.14-2.18.53-7.86,3.63-6.58,17.21,13.51,37.5,25.5,53.65,40.35,1.48,1.36,10.25,8.79,8.27,10.72Z"/>
      <g class="st6">
        <path class="st45" d="M808.66,224.44s12.27,12.68,29.8,11.66c17.53-1.02,26.56-.65,26.56-.65,0,0,11.01,5.83,14.25,11.66,3.24,5.83,38.86,47.28,38.86,47.28l-62.83,22.02-46.64-91.98Z"/>
      </g>
    </g>
    <g>
      <path class="st65" d="M511.37,303.38c31.51,48.84,82.47,79.5,119.24,122.06,25.16,29.12,45.67,72.77,33.51,112.39-8.47-16.52-13.89-34.21-23.52-50.21-29.35-48.77-79.71-80.84-116.93-121.86-15.13-16.68-26.81-36.63-41.18-52.94-3.39-3.85-16.09-13.7-16.98-15.13-4.04-6.48,2.02-31.4-1-40.61l4.22-.09,64,41.85c5.98,9.05-18.35,2.85-21.35,4.55Z"/>
      <g class="st34">
        <path class="st10" d="M458.88,295.69s31.74,5.83,65.42,9.07c33.68,3.24,31.09,22.02,31.09,22.02l-27.2,64.13-53.76-34.33-15.55-60.89Z"/>
        <path class="st32" d="M531.68,329.99s94.3,91.95,122.18,147.9c10.05,50.39,10.44,77.65,10.44,77.65l21.29-112.16-72.55-86.8-81.36-26.59Z"/>
      </g>
    </g>
    <g>
      <path class="st65" d="M1114.63,195.45l29.88,84.72c-4.6,13-12.54-7.03-19.41-9.47,2.35,30.98,3.59,62.17,5.9,93.17,5.11,68.76,17.98,143.21,1.57,211-.65,2.69-11.79,42.81-17.73,36.2-.34-21.91,3.87-43.79,3.94-65.66.22-59.46-8.09-119.7-11.76-178.79-2.84-45.75-.83-93.86-9.77-138.32l12.55-32.57,4.83-.28Z"/>
      <g class="st3">
        <path class="st22" d="M1095,222.53s21.5,39.76,34.08,50.71c12.58,10.95,4.46,48.68,4.46,48.68l-51.93,15.42,13.39-114.81Z"/>
      </g>
    </g>
    <g>
      <path class="st65" d="M695.52,1371.27c0-25.93-24.39-40.55-72.51-43.45-12.41-.53-24.97-2.82-37.33-6.8,8.82-6,17.64-11.16,26.2-15.35,85.64-37.83,146.42-64.05,180.55-77.88,1.65-.55,4.12-3.1,10.95-17.92,6.75-14.69,7.61-18.12,7.61-19.47v-.35l-.15-.31c-.85-1.75-1.46-3.01-32.75,10.41-57.2,24.64-92.01,37.13-103.46,37.13-22.89,0-45.45-10.52-67.03-31.26-21.57-20.74-32.51-41.7-32.51-62.3,0-2.44,3.97-7.56,30.54-14.38,23.19-5.66,50.45-8.53,81-8.53,19.67,0,33.17,1.41,40.13,4.19,15.73,6.05,19.03,4.92,20.2,2.86.56-.84.72-1.85.47-2.93-.67-2.86-4.43-8.34-29.19-22.72-21.83-13.51-46.29-20.36-72.71-20.36s-49.26,8.99-69.29,26.71c-20.09,17.78-30.27,39.12-30.27,63.42s10.08,48.21,29.98,69.55c14.67,14.93,28.24,24.86,40.4,29.57-23.57,11.41-49.59,24.26-63.54,38.25-6.69,6.7-7.12,10.02-8.37,19.85-.17,1.35-.36,2.83-.59,4.47l-.02.14v.14c.35,7.11,1.5,12.69,6.11,18.47,10.48,13.25,32.68,21.67,66.01,25.04,46.64,4.13,56.43,12.41,56.43,18.63,0,3.81-9.46,14.93-72.79,46.61-55.77,27.46-105.1,41.39-146.63,41.39-29.45,0-53.32-7.66-70.97-22.79-25.21-20.45-37.99-49.44-37.99-86.18,0-15.71,2.85-30.93,8.47-45.27,10.28-26.74,8.84-30.42,6.68-31.77l-.15-.08c-1.27-.6-2.68-.62-4.07-.04-3.12,1.29-8.29,5.89-17.26,30.83-9.44,25.16-14.22,50.69-14.22,75.87,0,45.95,15.47,81.21,45.98,104.82,20.15,15.26,46.24,23,77.54,23,67.1,0,141.16-31.08,220.11-92.37,18.86-14.22,28.43-37.38,28.43-68.85Z"/>
      <g class="st4">
        <path class="st28" d="M579.65,1159.44s-13.91-20.87,6.96-67.83c20.87-46.96,98.56-52.18,98.56-52.18l46.96,59.71-39.42,45.8-113.05,14.49Z"/>
        <path class="st53" d="M597.05,1261.48s41.74,27.25,98.56,16.81c56.81-10.44-76.53,36.52-76.53,36.52l-23.19,4.64-23.77-11.59-20.29-16.81,45.22-29.57Z"/>
        <path class="st18" d="M632.41,1221.48s38.84,25.51,124.64,24.93c85.8-.58,81.74-36.52,81.74-36.52l-41.74-46.96s-88.12,18.55-89.86,18.55-74.79,40-74.79,40Z"/>
        <path class="st13" d="M598.2,1314.23s-41.74,22.03-61.45,44.06c-19.71,22.03,86.38,26.67,86.38,26.67l42.32-66.67-67.25-4.06Z"/>
        <path class="st40" d="M689.8,1342.06s-1.17,52.37-33.62,67.83c-36.52,17.39-41.16-27.83-41.16-27.83l42.32-63.77,32.47,23.77Z"/>
        <path class="st33" d="M648.95,1459.98s-172.61,86.31-232.8,44.29c-60.19-42.02-88.58-110.15-63.59-153.31,24.98-43.15-24.98-123.78-28.39-123.78s-69.27,19.31-69.27,67,36.34,218.04,36.34,218.04l193.05,96.53,164.66-148.77Z"/>
      </g>
    </g>
    <path class="st65" d="M1575.55,1059.41"/>
    <path class="st65" d="M322.69,827.86c-4.71,4.4-28.68-19.34-34.29-18.93-5.46.4-10.26,23.03-16.01,26.9l-36.35-25.71,15.81-33.53c5.2-3.49,27.85,17.95,34.17,20.04,5.91-4.02,10.03-26.97,16.29-27.13,3.59-.09,31.35,19.67,32.66,24.68l-12.29,33.68Z"/>
    <path class="st65" d="M398.89,1219.3c-4.71,4.4-28.68-19.34-34.29-18.93-5.46.4-10.26,23.03-16.01,26.9l-36.35-25.71,15.81-33.53c5.2-3.49,27.85,17.95,34.17,20.04,5.91-4.02,10.03-26.97,16.29-27.13,3.59-.09,31.35,19.67,32.66,24.68l-12.29,33.68Z"/>
    <path class="st65" d="M599.45,1641.38c-4.71,4.4-28.68-19.34-34.29-18.93-5.46.4-10.26,23.03-16.01,26.9l-36.35-25.71,15.81-33.53c5.2-3.49,27.85,17.95,34.17,20.04,5.91-4.02,10.03-26.97,16.29-27.13,3.59-.09,31.35,19.67,32.66,24.68l-12.29,33.68Z"/>
    <path class="st65" d="M1354.19,1290.56c-4.71,4.4-28.68-19.34-34.29-18.93-5.46.4-10.26,23.03-16.01,26.9l-36.35-25.71,15.81-33.53c5.2-3.49,27.85,17.95,34.17,20.04,5.91-4.02,10.03-26.97,16.29-27.13,3.59-.09,31.35,19.67,32.66,24.68l-12.29,33.68Z"/>
    <path class="st65" d="M1204.01,342.22c5.24-3.16,28.73,10.17,33.2,14.74l-16.93,31.37,22.37,14.31c-3.35,5.92-17.67,33.06-23.44,33.28l-29.4-15.26,18.97-31.64-23.85-16.09,19.08-30.69Z"/>
    <path class="st65" d="M1346.72,595.77c1.84-2.1,36.6,11.84,37.77,15.95l-10.06,31.03-33.76-11.63c-5.5,4.94-4.14,23.99-12.09,24.34-3.13.14-35.64-14.11-36.05-16.14l11.96-31.39,33.61,11.78,8.62-23.94Z"/>
    <path class="st65" d="M1100.72,613.19c-1.13,23.84-28.38,30.83-45.04,42.69-6.73,4.79-11.4,12.98-19.52,13.29-3.3-12.75,8.47-16.39,10.84-26.24-32.41-7.43.45-51.98,19.15-52.55,14.03-.43,13.98,15.75,7.15,24.89-3.4,2.11-9.55-8.11-20.35-2.59-11.15,5.69-.72,12.54,6.97,14.16,18.08,3.82,25.52-7.75,40.8-13.65Z"/>
    <path class="st65" d="M1405.36,528.03c-2.75-4.52,11.71-26.89,14.93-31.59l34.12,20.06c-2.15,5.74-12.1,28.6-16.66,29.21l-32.39-17.68Z"/>
    <path class="st65" d="M1319.72,1127.63c-2.75-5.01,11.71-29.76,14.93-34.97l34.12,22.2c-2.15,6.36-12.1,31.66-16.66,32.34l-32.39-19.57Z"/>
    <g>
      <g>
        <path class="st65" d="M1342.14,476.88c-1.42-6.63-17-42.43-21.84-43.54-5.48-1.26-13.7,34.23-13.13,39.67.95,9.16,20.94,35.02,19.55,45.58-1.27,9.67-38.86,23.58-48.46,24.14-9.88-18.11-16.79-37.44-34.41-49.02-30.73-20.18-58.7,9.56-66.82,40.31-16.14,61.11,37.64,64.37,79.23,56.41,9.02,14.04,8.61,22.02-2.23,33.75-59.12,63.96-260.31,147.01-320.89,52.09-.17-.27-.36-.56-.57-.86-1.51-2.58-3.05-5.52-4.53-8.84-.37-.84-.74-1.71-1.11-2.59-1.73-4.19-3.33-8.92-4.67-14.22-.2-.77-.39-1.55-.57-2.34-1.65-7.14-2.79-15.25-3.11-24.37.3-19.35,4.91-38.32,8.36-57.49-6.89-4.4-9.38,7.14-11.61,12.76-3.71,9.32-6.41,19.26-8.31,29.47-.02,0-.07.01-.07.01,0,0-4.89,17.03-3.75,40.76.18,3.69.5,7.53,1.01,11.5.41,3.2.95,6.48,1.62,9.83,2.17,10.73,5.83,22.07,11.65,33.36,1.34,2.47,2.75,4.88,4.26,7.23,12.55,19.53,30.82,34.78,51.88,43.21,79.71,31.9,199.86-23.22,262.82-76.23,31.23-26.29,43.22-47.51,46.27-91.55,14.58-6.92,29.62-11.58,41.49-23.61,18.57-18.82,23.56-59.24,17.94-85.42ZM1198.24,543.64c4.47-27.1,33.11-13.78,41.54,4.9-14.51,1.32-27.91,1.4-41.54-4.9Z"/>
        <g class="st35">
          <path class="st29" d="M1242.93,592.73s26.05-1.66,52.65-12.75c26.6-11.08-23.28,68.72-23.28,68.72l-39.35-17.18,9.98-38.79Z"/>
          <path class="st47" d="M1231.84,549.5s43.23,0,67.61-14.96c24.39-14.96-24.39-28.82-24.39-28.82l-38.79,18.29-15.52,10.53,11.08,14.96Z"/>
          <path class="st9" d="M1308.71,480.29s36.27,49.88,20.08,83.56c-16.19,33.68-38.22,29.15-38.22,29.15l-6.48-62.18,24.61-50.52Z"/>
          <path class="st7" d="M927.84,570.98s-31.74,64.77,5.18,121.13c36.92,56.35,136.02,60.24,240.96,33.68,104.93-26.56-189.14,108.82-189.14,108.82l-149.63-108.17,18.78-129.55,75.14-47.28-1.3,21.38Z"/>
        </g>
      </g>
      <path class="st65" d="M886.57,669.32c-.11.11-.2.21-.3.32l1.01-.69c-.24.12-.47.24-.71.36Z"/>
      <path class="st65" d="M889.5,673.94c-.34.02-.68.05-1,.09.33-.02.66-.04,1-.09Z"/>
      <path class="st65" d="M921.54,710.55c.07-.02.14-.05.21-.08-1.51-2.35-2.92-4.76-4.26-7.23,1.26,2.44,2.59,4.88,4.06,7.31Z"/>
    </g>
    <g>
      <path class="st65" d="M1059.23,307.1c-4.07-28.71-7.75-57.57-10.86-86.42.12-1.72,1.99-1.69,3.61.12,2.92,3.27,5.33,9.06,10.11,11.1l3.14.15,2.33-4.54-34.82-84.78c-3.5-.62-3.93,1.92-5.3,4.43-1.69,3.09-10.48,27.66-10.38,30.31.17,4.41,3.05,7.75,3.65,11.4,4.84,29.69,5.79,59.94,9.67,89.75,8.65,66.5,23.62,135.89,29.88,202.16,2.23,23.56,2.01,34.98-11.32,53.95-32.37,46.04-105.81,94.27-110.84,96.6-10.06,4.67-1.85,4.64,1.05,4.42,6-.34,29.79-4.89,40.13-8.46,30.25-9.88,45.33-18.38,66.51-48.12,57.43-80.63,26.46-180.34,13.44-272.08Z"/>
      <g class="st14">
        <path class="st5" d="M1056.05,444.85s20.28,104.26-17.04,146.05c-37.32,41.79-71.4-11.36-71.4-11.36l77.89-137.53,10.55,2.84Z"/>
        <path class="st17" d="M1013.34,174.56s14.9,25.91,22.02,30.44c7.13,4.53,20.08,18.14,20.73,25.91.65,7.77,11.01,38.22,11.66,41.45.65,3.24,4.53,45.99,4.53,45.99l-49.23,1.3-9.72-145.09Z"/>
      </g>
    </g>
    <g>
      <path class="st65" d="M1692.58,963.59l-.06-.39c-8.98-46.2-26.65-93.39-52.53-140.25-7.93-14.32-16.47-28.36-25.47-41.81-5.26-7.32-11-14.92-17-22.52-13.02-17.04-21.89-26.34-22.26-26.73l-.21-.19c-2.39-2.1-4.78-2.84-7.07-2.2-1.44.39-2.56,1.26-3.5,2.43-.04.04-.06.08-.1.12-1.87,2.35-2.97,5.83-3.98,9.03-.33,1.05-.62,2.06-.97,2.95-7.25,19.87-6.22,24.61-3.98,35.01.87,4,1.94,8.98,2.82,16.22l.08.49c.16,1.44.33,2.89.52,4.33l.02.19c1.18,9.87,2.54,20.73,4.16,33.16.91,7.19,1.86,14.42,2.8,21.66,4.58,35.2,9.33,71.59,12.82,106.29l.06.43c1.05,10.51,1.88,19.68,2.56,28.05l.1,1.2c1.59,19.37.5,41.56.06,48.61-.02.02-.02.04,0,.06-.1,1.4-.17,2.18-.17,2.21-.35,1.26-2.31,4.31-12.16,9.58-1.01.54-2.02,1.07-3.03,1.57-1.03.49-2.04.97-3.03,1.4-2.99,1.28-5.81,2.27-8.45,2.91-.66.17-1.3.31-1.94.43-1.9.35-3.71.54-5.42.54-.89,0-1.81.08-2.76.25-.43-.1-.85-.16-1.28-.16-19.95,0-33.88-7.23-42.57-22.13-4.6-7.83-6.18-15.83-4.66-23.84,6-.76,20.52-.68,43.27.25.21,0,.45-.02.68-.08.16-.04.31-.08.49-.16,1.81-.72,4.45-4,10.9-17.85,7.15-15.35,8.08-19.19,8.08-20.83,0-2.56,0-2.72-35.59-2.72h-.18c-35.63-.76-71.88-5.01-107.73-12.65-23.45-5.34-51.23-12.84-82.61-22.28-21.47-6.28-35.42-9.07-42.76-8.53-.95.14-2.08.33-3.4.6-.68.14-1.4.29-2.2.47-.76.16-1.55.33-2.41.52-.39.1-.8.17-1.2.27-.49.12-.99.23-1.52.35-2.88.68-6.2,1.52-10.02,2.49-7.85,2.1-12.67,3.73-15.68,5.03-.19.08-.39.17-.56.25-.52.23-.97.47-1.38.68-.02,0-.04,0-.06.02-.27.14-.52.29-.76.43-.16.08-.29.17-.41.25-.91.56-1.44,1.05-1.79,1.5-1.61,2.02-5.25,7.95-11.13,18.15-7.5,12.98-8.22,16.51-7.34,18.18.29,1.77,3.05,2.12,29.51,3.57,22.4,1.03,41.09,2.84,55.54,5.36l1.01.17.06-.06.06.02.7-.7c2.16-2.14,3.92-3.92,5.34-5.34,32.02,7.77,57.04,13.77,74.5,17.87-58.73,21.45-97.56,34.97-120.9,40.37-94.59,21.89-184.04,33.22-265.87,33.65-2.99,0-5.19.02-6.55.06-36.97.78-69.92,0-97.97-2.29-23.1-1.28-43.17-4.12-59.64-8.41-18.69-4.8-33.49-10.92-43.98-18.16-11.05-8.04-19.7-16.55-25.7-25.29-10.86-15.95-20.4-56.61-28.34-120.9-.31-2.6-.64-5.23-.95-7.91-.84-7.34-1.67-14.55-2.53-21.6-9.64-81.19-19.41-142.4-29.06-182.17-3.61-14.65-8.55-29.76-14.71-44.9-8.18-20.46-9.77-20.46-11.42-20.46-.27,0-.51,0-.76.08-.06.02-.12.04-.19.06-.04.02-.08.04-.14.06-1.3.76-2.86,4.27-7.69,20.44-5.98,19.87-5.36,21.41-4.9,22.57,13.19,26.62,24.77,73.42,34.45,139.06,6.39,49.79,12.72,100.28,18.86,150.08,7.71,55.78,21.58,95.35,41.23,117.58,15.89,18.5,48.14,31.14,95.93,37.61,15.35,1.53,30.52,2.7,45.17,3.46,3.57.1,7.6.23,12.08.39,13.66.47,32.07,1.07,54.81,1.07,65.1,0,165.6-5.05,291.43-33.34,1.03-.21,2.08-.47,3.13-.72,32.62-7.71,76.16-23.84,130.81-44.08,9.91-3.67,20.2-7.48,30.79-11.37,3.46-1.09,6.84-2.08,10.16-2.99,1.77-.49,3.54-.93,5.28-1.36,1.42-.35,2.84-.68,4.24-.97l1.81-.41c2.23-.47,4.45-.89,6.62-1.26,1.65-.29,3.26-.54,4.86-.78,1.61-.23,3.19-.43,4.74-.6,3.9-.43,7.67-.68,11.29-.76-3.32,16.98-4.7,27.98-4.2,33.49.52,15.08,5.93,27.8,15.95,37.86,10.08,10.08,22.85,15.19,37.94,15.19.85,0,1.71-.08,2.62-.25.47.1.95.16,1.42.16,2.84,0,5.59-.14,8.24-.45.99-.1,1.98-.21,2.95-.37.85-.14,1.71-.27,2.54-.43.02,0,.04,0,.06-.02.76-.14,1.52-.29,2.25-.47.23-.04.47-.1.68-.16.51-.12.99-.25,1.48-.39,1.59-.41,3.15-.89,4.66-1.46.47-.17.91-.35,1.36-.52,1.09-.43,2.18-.89,3.22-1.4.52-.25,1.05-.51,1.57-.78,1.55-.8,3.05-1.67,4.51-2.62.49-.33.95-.64,1.44-.97,5.87-4.08,10.88-9.48,14.98-16.14.1-.16.21-.31.31-.47,31.26-44.02,23.33-136.23,13.19-205.95-2.25-15.62-3.94-37.11-5.28-49.37,51.44,71.78,70.5,157.52,65.88,235.23-9.29,156.2-94.22,264.41-122.14,299.96-7.44,9.46-10.39,17.31-11.56,22.24-.45,1.85.37,3.75,1.98,4.72.7.41,1.46.6,2.21.6,1.05,0,2.06-.37,2.88-1.09,9.83-8.76,44.64-41.46,79.48-93.93,44.61-67.18,71.57-139.06,80.12-213.64,1.09-9.56,1.81-19.47,2.14-29.45,1.07-26.85-.35-54.2-4.06-79.13Z"/>
      <g class="st16">
        <path class="st1" d="M1551.82,758.4s-.9,15.25,8.52,25.57c9.42,10.32,35.44,27.36,45.31,51.59,9.87,24.22,9.87,53.38,9.87,53.38l-70.88,5.38-2.69-117.53,8.52-18.84,1.35.45Z"/>
        <path class="st11" d="M1462.55,1018.13s28.26-9.87,48.45-4.04c20.19,5.83,11.66,35.44,11.66,35.44l-19.74,17.94-34.99,9.87-5.38-59.21Z"/>
        <rect class="st52" x="908.77" y="1052.79" width="160.48" height="79.75" transform="translate(-24.71 22.89) rotate(-1.31)"/>
        <path class="st2" d="M1382.82,994.29s89.26,15.65,98.87,16.36c9.6.71,45.52,1.78,45.52,1.78,0,0-8.54,11.02-9.6,11.74s-70.77,20.63-70.77,20.63l-66.15,9.25-100.29-24.89,102.42-34.85Z"/>
        <path class="st42" d="M1245.19,933.84s41.61,37.34,85,47.66c43.39,10.31-17.43,29.16-17.43,29.16l-86.78,11.02-25.96-35.92,45.17-51.92Z"/>
        <path class="st70" d="M1581.26,1019.9s8.18,66.86-36.99,83.57c-45.17,16.71-65.79-7.82-65.79-7.82l57.61-46.23,45.17-29.52Z"/>
        <path class="st39" d="M665.71,653.48s38.46,23.08,59.83,161.54c21.37,138.46,31.62,221.36,100.85,233.33,69.23,11.97-126.49,96.58-126.49,96.58l-74.36-170.94,40.17-320.51Z"/>
        <path class="st23" d="M1616.77,859.71s89.02,156.92,48.28,357.6c-40.74,200.68-144.85,208.22-144.85,208.22l-6.04-111.66s66.39-69.41,70.92-75.44c4.53-6.04,48.28-202.19,48.28-202.19l-16.6-176.54Z"/>
      </g>
    </g>
    <g>
      <path class="st65" d="M1401.77,1080.13c-2.45-3.65-3.48-3.65-4.27-3.65-1.3,0-2.64,0-9.05,15.83-1.34,3.69-3.13,8.43-5.34,14.18-1.15,2.99-2.41,6.26-3.77,9.77-.25,1.81-.43,3.85-.49,6.12.35,2.54.99,5.46,1.2,7.91,8.51,12.49,11.05,47.97,14.74,71.52,7.38,41.54,9.17,77.61,13.49,107,4.53,30.89,7.46,55.06,8.96,72.46.8,9.38,1.19,16.8,1.19,22.24,0,3.15-4.51,7.13-13.54,11.97-9.03,4.86-16.82,7.27-23.37,7.27-.02,0-.03,0-.05,0-.08,0-.15-.03-.23-.03-12.57,0-22.38-4.06-29.45-12.17-5.76-6.81-7.72-17.54-5.89-32.2.52-5.24-.27-7.86-2.36-7.86-6.55,2.62-11.39,4.98-14.53,7.07-25.91,17.01-62.69,30.76-110.33,41.23-19.26,4.24-33.04,6.76-41.34,7.57,7.28-2.09,14.68-6.62,22.19-13.64,16.49-15.18,24.73-34.55,24.73-58.1,0-13.09-7.53-25.13-22.58-36.12-15.05-10.99-31.6-16.89-49.67-17.67-29.31-1.05-81.34,29.3-108.36,55.76-10.01,9.8-17.68,15.98-28.67,30.62-14.93,19.89-25.39,33.63-31.41,41.23-9.94,1.05-20.68,1.58-32.2,1.58-12.41,0-26.31-.52-41.63-1.91-13.02-37.76-30.99-56.65-53.94-56.65-13.87,0-25.78,7.07-35.73,21.2-8.9,12.83-13.36,25.92-13.36,39.26,0,14.92,7.72,25.13,23.17,30.62,7.07,2.36,21.47,4.45,43.19,6.29,8.64.52,17.93,1.04,27.88,1.57.53,2.88.79,5.1.79,6.67,0,10.47-18.85,29.84-56.54,58.11-41.36,30.88-76.43,46.32-105.22,46.32-20.42,0-36.65-7.07-48.69-21.2-11.26-13.09-16.89-29.71-16.89-49.86,0-11.78,1.44-23.83,4.32-36.13,2.88-12.3,4.33-18.45,4.33-18.45,0-.78-.26-1.31-.79-1.57-3.14-.78-7.33,7.59-12.57,25.13-5.76,18.85-8.64,37.43-8.64,55.76,0,25.39,6.02,45.8,18.06,61.25,13.09,17.01,32.07,25.52,56.93,25.52,26.44,0,57.59-12.96,93.44-38.87,31.15-22.51,54.71-45.41,70.67-68.71,8.64-12.83,12.96-27.49,12.96-43.98,8.11,0,23.22-.2,45.34-.59,2.92-.05,5.65-.1,8.22-.14h0c27.74,1.05,58.49-2.09,92.26-9.42,53.71,15.19,165.78-.87,195.64-11.6,32.07-11.51,57.78-24.34,77.15-38.48,2.88,34.55,16.3,53.75,40.04,51.82,27.99-2.27,57.9-24.81,66.89-55.5,2.89-9.91,6.24-45.31,3.91-70.32-6.14-65.85-9.49-107.71-20.3-177.99,32.27,52.34,51.44,103.49,59,143.76,28.29,150.52-83.91,223.34-105.47,237.85-25.68,17.29-5.83,21.8-5.83,21.8,80.92-35.8,119.44-104.71,134.03-150,57.66-179.02-76.29-308.47-102.27-331.45ZM851.1,1427.59c-12.57-.79-18.85-3.8-18.85-9.03,0-6.55,4.32-9.82,12.96-9.82,9.42,0,19.36,6.67,29.83,20.02-1.05,0-9.03-.39-23.95-1.17ZM1002.82,1428.82c50.78-61.25,96.06-91.22,135.84-89.9,18.06.78,34.03,6.93,47.9,18.45,11.26,9.16,16.89,16.36,16.89,21.59,0,4.19-14.66,11.12-43.98,20.81-40.83,13.35-93.05,23.03-156.65,29.05Z"/>
      <g class="st24">
        <path class="st68" d="M1373.79,1125.57l6.26,4.72s32.66,4.64,49.9,41.09c17.24,36.45,10.84,66.99,10.84,66.99l-51.23,15.27-16.75-119.21.99-8.87Z"/>
        <path class="st64" d="M1179.7,1426.55s-68.09,25.01-120.74,33.69c-52.65,8.68-39.85,33.31-39.85,33.31,0,0,167.97.99,170.93-.49s55.17-25.12,55.17-25.12l15.76-70.44-81.28,29.06Z"/>
        <path class="st31" d="M964.93,1427.53l12.31,1.48s21.18.49,51.23-2.96c30.05-3.45,25.61-19.21,25.61-19.21l5.42-22.17-42.36-21.67-52.22,64.53Z"/>
        <path class="st66" d="M908.39,1420.6s8.92,62.88,3.28,76.49c-5.63,13.61,56.78-22.06,56.78-22.06l-3.28-64.29-56.78,9.85Z"/>
        <path class="st62" d="M865.69,1420.13s28.32,22.59,35.28,50.24c6.96,27.65-52.17,28.12-52.17,28.12l-29.56-30.03,27.69-50.21,18.77,1.88Z"/>
        <path class="st36" d="M1444.08,1204.46s118.54,134.08-9.07,319.33c-127.6,185.25-115.3,40.81-115.3,40.81l64.77-89.39,38.22-7.77,32.39-77.08,3.89-78.38-14.9-107.52Z"/>
        <path class="st58" d="M1344.33,1365.1s10.36,26.56-20.08,51.17c-30.44,24.61,7.13,57,7.13,57l40.16,7.77,22.67-84.21-49.88-31.74Z"/>
        <path class="st59" d="M1192.66,1363.28s41.18,41.54-5.37,59.8c-48.11,18.87-111.01-3.22-111.01-3.22l1.07-29.01,115.31-27.57Z"/>
        <path class="st54" d="M900.96,1470.38s7.54,58.37-33.93,96.65-63.26,38.28-63.26,38.28l-1.06-66.98,98.26-67.94"/>
        <path class="st15" d="M687.88,1454.85s-63.26,110.58,50.5,149.39c0,0,31.9,6.38,78.68-7.44,46.78-13.82-104.2,82.93-104.2,82.93l-43.59-23.39-26.05-96.22,25.52-123.87,19.14,18.61Z"/>
        <path class="st57" d="M841.52,1408.6s-28.71,9.57-38.28,46.78c-9.57,37.21,34.02,22.86,34.02,22.86l10.63-56.88-6.38-12.76Z"/>
      </g>
    </g>
    <g>
      <path class="st65" d="M1005.69,1179.07c-7.6-43.42-32.58-252.13-40.51-295.24,13.22,16.92,21.65,24.43,25.29,22.51.66-.32.98-1.12.98-2.39,0-7.66-7.68-28.26-23.04-61.79-15.37-33.53-24.05-50.29-26.03-50.29-.99,0-4.54,8.14-10.66,24.43-6.11,16.28-9.17,25.23-9.17,26.83,0,1.92,1.98,4.31,5.95,7.18,4.3,32.89,30.44,251.97,43.99,326.37,12.55,69.29,20.98,123.1,25.28,161.41,1.32,13.41,2.48,26.83,3.47,40.24.99,13.41,2.64,20.12,4.95,20.12,3.97,0,7.44-7.66,10.42-22.99,3.63-17.24,5.45-37.52,5.45-60.83,0-28.1-5.45-73.29-16.36-135.56Z"/>
      <g class="st44">
        <path class="st51" d="M917.84,841.51s46.15,35.04,53.85,52.99c7.69,17.95,7.69,74.36,7.69,74.36l9.4,37.61-69.23-7.69-1.71-157.26Z"/>
      </g>
    </g>
    <path class="st12" d="M1488.34,723.99l-17.31,41.79c-11.42-1.34-22.3-4.58-30.81-9.27-8.92-4.92-13.4-11.77-21.33-17.19,15.21-6.55,35.46-20.5,35.46-20.5,8.59,3.28,21.23,5.36,34,5.17Z"/>
  </g>
  <g>
    <path class="st71" d="M1322.2,1472.77c4.12-.47,2.27,7.51,1.71,9.56-6.26,22.65-32.75,63.79-16.26,86.69,5.09,7.07,13.95,9.53,20.28,2.43.93-1.04,11.32-24.82,12.08-12.5.23,3.75-11.31,32.97-14.58,36.89-8.78,10.53-23.01,7.06-29.84-3.57-17.47-27.18,14.45-92.42,26.6-119.5Z"/>
    <path class="st71" d="M249.65,1162.29c5.61-.64,3.1,10.23,2.33,13.01-8.52,30.84-44.58,86.82-22.13,118,6.93,9.62,18.99,12.97,27.61,3.3,1.26-1.42,15.41-33.78,16.45-17.01.31,5.1-15.39,44.87-19.85,50.22-11.95,14.33-31.32,9.61-40.62-4.86-23.78-37,19.67-125.79,36.21-162.66Z"/>
    <path class="st71" d="M512.77,1231.79c.83,2.87.69,6.02-.41,9.45-1.11,3.43-2.35,4.83-3.74,4.19-2.21-.96-6.57-3.27-13.07-6.94-5.81,12.29-17.81,28.04-36,47.26-18.19,19.23-30.33,28.84-36.42,28.84-1.25,0-2.08-.56-2.49-1.68,11.35-11.33,22.76-22.65,34.24-33.98,18.95-19.14,30.36-33.58,34.24-43.32-3.74-2.71-7.54-5.42-11.41-8.14-3.46-3.51-5.19-8.38-5.19-14.6,0-3.51,2.21-8.69,6.64-15.56,4.43-6.86,8.23-10.29,11.41-10.29,9.27,0,13.9,6.38,13.9,19.14,0,5.11-.97,10.53-2.9,16.27,3.46,2.08,7.19,5.19,11.21,9.33ZM495.34,1220.79c.41-1.75.62-3.59.62-5.5,0-8.29-2.21-12.44-6.64-12.44-3.46,0-5.4,1.84-5.81,5.5-.42,3.19,3.53,7.34,11.83,12.44Z"/>
    <path class="st71" d="M937.68,1599.02l-1.05,16.69c-14.39,7.89-37.82,21.04-70.28,39.46-21.94,12.75-51.85,31.57-89.75,56.46l1.32-16.39c18.07-11.74,47.99-30.56,89.75-56.46,16.67-9.92,40.01-23.17,70.01-39.76Z"/>
    <path class="st71" d="M1448.77,775.99l-1.05,16.69c-14.39,7.89-37.82,21.04-70.28,39.46-21.94,12.75-51.85,31.57-89.75,56.46l1.32-16.39c18.07-11.74,47.99-30.56,89.75-56.46,16.67-9.92,40.01-23.17,70.01-39.76Z"/>
    <path class="st71" d="M1154.02,759.02l-1.05,16.69c-14.39,7.89-37.82,21.04-70.28,39.46-21.94,12.75-51.85,31.57-89.75,56.46l1.32-16.39c18.07-11.74,47.99-30.56,89.75-56.46,16.67-9.92,40.01-23.17,70.01-39.76Z"/>
    <path class="st71" d="M583.31,686.97l-1.05,16.69c-14.39,7.89-37.82,21.04-70.28,39.46-21.94,12.75-51.85,31.57-89.75,56.46l1.32-16.39c18.07-11.74,47.99-30.56,89.75-56.46,16.67-9.92,40.01-23.17,70.01-39.76Z"/>
    <path class="st71" d="M1507.03,361.13l-.97,13.82c-13.19,6.53-34.68,17.41-64.44,32.65-20.12,10.55-47.55,26.12-82.3,46.72l1.21-13.56c16.57-9.71,44.01-25.29,82.3-46.72,15.28-8.21,36.69-19.18,64.2-32.91Z"/>
    <path class="st71" d="M1211.66,1121.55l-1.05,16.69c-14.39,7.89-37.82,21.04-70.28,39.46-21.94,12.75-51.85,31.57-89.75,56.46l1.32-16.39c18.07-11.74,47.99-30.56,89.75-56.46,16.67-9.92,40.01-23.17,70.01-39.76Z"/>
    <path class="st71" d="M510.23,1036.73c2.62,26.78-37.56,31.41-44.87,54.37-4.39,13.77,12.79,15.88,23.01,15.94,13.21.08,26.45-6.52,39.42-6.22-20.47,26.32-93,33.19-68.8-17.87,1.6-3.38,12.05-14.76,10.85-16.35-36.14-5.67,1.63-52.55,19.83-47.12,8.83,2.63,3.57,18.01-1.61,18.85-2.72.44-7.3-7.53-16.41-.69-11.37,8.55,6.05,14.84,16.24,12.72,8.66-1.8,14.28-10.9,22.34-13.64Z"/>
    <path class="st71" d="M785.11,1313.7c2.62,26.78-37.56,31.41-44.87,54.37-4.39,13.77,12.79,15.88,23.01,15.94,13.21.08,26.45-6.52,39.42-6.22-20.47,26.32-93,33.19-68.8-17.87,1.6-3.38,12.05-14.76,10.85-16.35-36.14-5.67,1.63-52.55,19.83-47.12,8.83,2.63,3.57,18.01-1.61,18.85-2.72.44-7.3-7.53-16.41-.69-11.37,8.55,6.05,14.84,16.24,12.72,8.66-1.8,14.28-10.9,22.34-13.64Z"/>
    <path class="st71" d="M915.43,946.17c-13.84,4.11-22.66-5.12-35.18-6.64-13.02,40.81-67.88,51.44-104.89,59.34-1.2-6.33,1.34-4.14,4.76-5.81,28.73-14.02,74.05-28.37,93.85-53.83,5.25-6.75,9.02-18.94,16.46-25.2,23.42-19.7,36.29,13.29,25.01,32.14ZM908.6,932.23l-14.25-9.51c-1.57,7.78,10.1,5.92,14.25,9.51Z"/>
    <path class="st71" d="M329.47,411.23l49.08-36.26c-13.04-3.84-29.62-3.4-42.99-1.69-2.78.36-11.43,5.45-10.67.37.43-2.9,10.5-22.71,12.63-24.87,6.85-6.96,32.01-7.09,41.49-6.72,7.14.28,23.44.47,21.99,12.08-.9,7.15-18.73,35.99-24.04,40.4-3.74,3.11-12.34,6.24-17,8.06-9.56,3.72-20.56,7.1-30.48,8.63Z"/>
    <path class="st71" d="M1346.9,222.19l-5.61,14.74c-43,22.68-89.01,38.79-132.83,59.83-12.56,6.03-39.77,17.3-49.63,25.36-13.71,11.22,11.57,14.55,14.65,19.94,2.74,4.81.46,11.59-.23,16.75-27.31-4.61-38.16-22.16-17.87-48.43,9.83-12.73,66.41-36.4,83.46-44.13,35.42-16.05,71.93-31.08,108.07-44.08Z"/>
    <path class="st71" d="M655.35,765.8c4.86,5.36,6.18,14.36,3.68,21.57-4.63,13.37-11.14-9.5-19.9-3.98-9.93,8.44-11.55,78.78-20.48,79.22-5.02-8.38-16.76-51.44-22.69-55.17-3.38-2.12-5.98,4.56-10.2,3.56-2.81-.67-15.2-9.29-16.11-12.54-1.94-6.9,4.75-25.8,11.83-25.88,17.06-.2,32.54,35.72,37.37,52.46,3.71-2.03,4.92-50.99,19.58-62.25,5.46-4.2,12.23-2.16,16.92,3.01Z"/>
    <path class="st71" d="M789.82,618.06c4.83,5.21.06,14.21-.5,20.38-3.68.31-6.42-3.51-9.96-3.79-10.08-.8-17.19,14.17-1.34,17.51,12.02,2.53,19.4-9.24,27.89-16.51,6.96,28.06-45.3,43.92-38.43,71.2,16.75,11.14,37.05,2.99,53.94-2.5,2.59-.84,4.64-1.87,4.13,2.53-33.97,36.59-93.46,28.83-54.24-37.38-9.18-5.14-16.15-5.36-14.85-20.16,1.03-11.72,23.44-41.98,33.36-31.27Z"/>
    <path class="st71" d="M308,457.64c-.03,5.63,1.24,11.66.29,17.22-.34,1.99-11.89,35.2-13.04,37.5-13.74,27.49-51.86,36.04-52.22,76.31-.33,36.77,36.56,31.55,37.31,8.83.46-13.87-12.3-9.08-15.53-14.84-5.99-10.68,5.9-48.51,17.62-22.71.34,7.03-8.41,5.57-12.14,5.74.07,7.34,7.79,5.91,11.88,9.87,13.35,12.92-.6,53.97-18.86,55.32-27.67,2.06-29.49-44.22-22.07-66.08,10.91-32.13,44.52-40.15,53.51-66.92,4.23-12.6,1.85-23.38,8.87-36.14,1.37-2.49-.18-5.13,4.37-4.1Z"/>
    <path class="st71" d="M304.53,859.88c-.03,5.63,1.24,11.66.29,17.22-.34,1.99-11.89,35.2-13.04,37.5-13.74,27.49-51.86,36.04-52.22,76.31-.33,36.77,36.56,31.55,37.31,8.83.46-13.87-12.3-9.08-15.53-14.84-5.99-10.68,5.9-48.51,17.62-22.71.34,7.03-8.41,5.57-12.14,5.74.07,7.34,7.79,5.91,11.88,9.87,13.35,12.92-.6,53.97-18.86,55.32-27.67,2.06-29.49-44.22-22.07-66.08,10.91-32.13,44.52-40.15,53.51-66.92,4.23-12.6,1.85-23.38,8.87-36.14,1.37-2.49-.18-5.13,4.37-4.1Z"/>
    <path class="st71" d="M777.81,317.34c1.34-15.79,3.95-56.53,18.46-62.55,13.09-5.43,24.98,18.36,14.48,29.83-3.71-3.96-9.92-12.52-15.29-8.84-10.81,7.43-8.76,60.62-19,72.93-3.98,1.32-10.2-23.2-12.24-28.06-3.07-7.28-6.65-14.76-10.83-21.25l-1.82-1.46c-5.69,8.29-15.58-.84-21.39-5.77-3.49-5,2.93-23.5,6.32-25.02,10.86-4.89,22.08,11.42,27.47,20.9,5.45,9.57,7.73,21.31,13.85,29.29Z"/>
    <path class="st71" d="M758.69,116.88l-7.23,24.35c.42,3.01,11.9,9.52,14.99,12.8,19.56,20.77,10.77,56.01-14.12,62.37-32.63,8.34-20.45-43.38-14.6-63.74,1.63-5.67,13.88-41.86,20.95-35.79ZM745.66,163.38c-4.98,4.96-8.95,26.28-3.2,30.46,10.04,3.44,20.07-2.11,25.92-11.6l-22.72-18.86Z"/>
    <path class="st71" d="M1185.3,148.54l-6.93,23.36c.4,2.88,11.42,9.14,14.38,12.28,18.77,19.93,10.33,53.73-13.55,59.83-31.3,8-19.62-41.62-14-61.14,1.56-5.44,13.31-40.15,20.1-34.34ZM1172.81,193.15c-4.78,4.76-8.59,25.21-3.07,29.22,9.63,3.3,19.25-2.02,24.86-11.13l-21.79-18.09Z"/>
    <path class="st71" d="M1626.92,652.81c4.82,5.74,3.05,10.91,1.14,17.4-1.84,1.76-6.67-6.33-10.58-6.06-9.78.66-9,50.82-15.62,54.46-.64.35-3.56.9-3.41-.84.1-6.45-10.46-34.94-14.69-35.57-1.67-.25-3.7,1.86-6.32,1.26-1.74-.39-10.25-6.5-10.84-8.6-1.56-5.56,4.03-17.03,9.38-17.32,10.98-.6,20.27,22.83,23.95,32.85.86,2.33-1.11,4.79,3.02,3.72-1.92-12.19,8.07-60.28,23.98-41.3Z"/>
    <path class="st71" d="M488.44,630c-1.03-4.66,1.69-4.78,4.04-6.51,24.31-17.91,73.89-33.81,90.54-62.26,3.92-6.7,6.04-16.64,11.39-23.38,23.61-29.79,35.24,23.73,23.36,31.53-7.27,4.78-20.31-5.35-27.44-8.2-17.84,46.56-64.6,55.64-101.89,68.83ZM613.58,553.82c2.44-2.93-10.46-16.6-14.29-6.71l14.29,6.71Z"/>
    <path class="st71" d="M603.95,320.34c9.03-39.68-.24-74.29-24.48-103.41-12.58-15.11-25.3-14.6-12.24-41.24,38.83,25.89,61.94,85.25,43.68,135.36-1.37,3.75-2.45,9.84-6.97,9.29Z"/>
    <path class="st71" d="M1420.05,391.92c9.03-39.68-.24-74.29-24.48-103.41-12.58-15.11-25.3-14.6-12.24-41.24,38.83,25.89,61.94,85.25,43.68,135.36-1.37,3.75-2.45,9.84-6.97,9.29Z"/>
    <path class="st71" d="M947.15,247.48c9.03-39.68-.24-74.29-24.48-103.41-12.58-15.11-25.3-14.6-12.24-41.24,38.83,25.89,61.94,85.25,43.68,135.36-1.37,3.75-2.45,9.84-6.97,9.29Z"/>
    <path class="st71" d="M883.45,661.7c2.81,17.1-12.45,49.81-26.93,29.35-15.34-21.67,1.15-74.17,14.64-93.57,2.37,1.26.36,5.67-.22,7.72-4.83,17.12-18.21,50.6-6.4,66.68,9.34,12.71,12.49-3.7,18.91-10.18Z"/>
    <path class="st71" d="M1339,309.15c-5.45,14.43-17.42,51.25-6.22,64,8.38,9.55,9.87-8.8,17.34-7.08-2.63,13.18-8.81,36.93-23.73,24.14-14.73-12.63-1.86-61.19,7.13-76.11,1.55-2.58,1.81-5.76,5.47-4.95Z"/>
    <path class="st71" d="M999.32,487.79c-5.24,13.99-17.15,49.58-6.31,61.92,8.39,9.55,9.87-8.8,17.34-7.08-2.84,11.72-6.99,33.77-21.01,25.01-17.66-11.03-4.53-59.9,4.51-74.9,1.55-2.58,1.81-5.76,5.47-4.95Z"/>
    <path class="st71" d="M622.27,1488.83c-5.24,13.99-17.15,49.58-6.31,61.92,8.39,9.55,9.87-8.8,17.34-7.08-2.84,11.72-6.99,33.77-21.01,25.01-17.66-11.03-4.53-59.9,4.51-74.9,1.55-2.58,1.81-5.76,5.47-4.95Z"/>
    <path class="st71" d="M1616.6,1190.87h0c-13.97,17.75-32.61,27.9-55.94,30.46-22.78,2.5-34.89-2.8-36.33-15.91-1.33-12.14,2.84-24.14,12.51-36.01,1.47-1.64,10.19-9.72,26.15-24.24-6.67-.74-12.99-.78-18.95-.13-11.39,1.25-19.07,3.81-23.03,7.69-1.47,1.64-2.8,2.03-3.99,1.17-1.14-.37-1.27-1.58-.4-3.64,2.89-8.67,6.89-14.76,11.99-18.27,3.58-2.36,11.07-4.16,22.46-5.41,16.27-1.79,24.7-.01,25.29,5.33,1.23,11.17-6.2,23.53-22.27,37.08-14.66,11.44-21.65,20.31-20.95,26.62.32,2.91,3.61,5.38,9.87,7.39,6.26,2.01,12.1,2.72,17.52,2.13,20.61-2.26,37.81-8.08,51.6-17.46,2.55-1.75,4.4-2.45,5.53-2.08,1.68.31,1.32,2.07-1.07,5.28Z"/>
    <path class="st71" d="M160.08,752.98c4.04-.46,2.23,7.38,1.68,9.38-6.14,22.24-32.15,62.62-15.96,85.11,5,6.94,13.7,9.36,19.91,2.38.91-1.02,11.12-24.37,11.86-12.27.23,3.68-11.1,32.37-14.31,36.22-8.62,10.34-22.59,6.93-29.29-3.5-17.15-26.69,14.19-90.73,26.12-117.32Z"/>
    <path class="st71" d="M1054.01,1643.08c98.35-62.76,107.6,31.72,11.45,63.17-43.44,14.21-79.29,17.17-123.09,2.93.45-4.48,16.54-10.31,19.81-11.13,14.11-3.54,39.54-2.07,51.72-9.25,20.62-12.15,49.77-98.28,17.11-103.62-22.68-3.71-21.19,12.65-39.05,16.51,5.04-15.53,31.09-49.19,47.52-49.26,44.16,13.27,18.35,58.75,14.53,90.65ZM1037.48,1688.56c11.11-4.05,74.39-20.95,74.29-31.01-23.04-25.38-68.88,3.11-74.29,31.01Z"/>
    <path class="st71" d="M1186.06,963.45c-5.3,3.48-12.09-16.14-24.41-13.41-14.18,3.13-18.11,61.99-27.48,76.79-1.67,2.64.11,3.84-5.86,2.93-.1-11.23-18.91-47.39-29.06-51.51-4.01-1.63-7.84.63-10.63-.09-23.08-5.92-22.87-22.63-5.94-34.96,30.53,9.04,39.41,36.59,52.2,59.11,5.28-17.06,7.2-59,26.13-68.69,17.75-9.09,33.83,16.69,25.06,29.83Z"/>
    <path class="st71" d="M928.4,1197.23c-3.64-6.35-7.26-11.35-10.87-14.98,4.22-6.65,7.14-13.11,8.73-19.39,3.93-15.49.2-24.69-11.2-27.59-3.74-.95-9.41,2.1-16.99,9.15-7.59,7.06-11.93,12.74-13.02,17.05-1.94,7.65-1.33,14.17,1.82,19.57l11.49,13.56c-7.97,10.72-26.59,24.87-55.86,42.49-17.48,10.39-35,20.87-52.53,31.44.16,1.51,1,2.46,2.53,2.84,7.32,1.86,25.16-6.19,53.53-24.14,28.36-17.96,48.14-33.66,59.34-47.1,7.38,7.31,12.01,11.5,13.9,12.61,1.33,1.17,3.21-.18,5.65-4.05,2.43-3.87,3.58-7.7,3.46-11.48ZM910.4,1178.25c-8.42-8.19-11.9-14.5-10.4-18.92,1.19-3.25,3.52-4.96,7-5.12,6.95-.31,8.92,5.51,5.89,17.46-.6,2.36-1.43,4.55-2.48,6.57Z"/>
    <path class="st71" d="M515.44,1299.85c5.03,20.68,18.54,33.27,14.66,56.04-4.79,28.08-32.11,25.91-43.84,4.38-9.23,28.85-41.11,35.86-46.36.59-1.2-8.03.77-17.67-.72-24.05-.47-2.03-4.89-.8-5.3-5.4-.56-6.29.97-13.03,5.28-17.8,4.66-3.49,6.43,1.45,7.92,4.89,5.42,12.54-4.96,50.39,17.59,45.73,33.63-6.94-.9-54.73,14-61.85,5.06-1.24,5.12,5.34,6.32,8.73,7.12,20.13,5.37,56.75,38.2,42.72-3.87-11.74-13.47-22.86-15.11-35.34-.91-6.94-2.47-19.14,7.37-18.65Z"/>
    <path class="st71" d="M1195.95,1195.34c5.03,20.68,18.54,33.27,14.66,56.04-4.79,28.08-32.11,25.91-43.84,4.38-9.23,28.85-41.11,35.86-46.36.59-1.2-8.03.77-17.67-.72-24.05-.47-2.03-4.89-.8-5.3-5.4-.56-6.29.97-13.03,5.28-17.8,4.66-3.49,6.43,1.45,7.92,4.89,5.42,12.54-4.96,50.39,17.59,45.73,33.63-6.94-.9-54.73,14-61.85,5.06-1.24,5.12,5.34,6.32,8.73,7.12,20.13,5.37,56.75,38.2,42.72-3.87-11.74-13.47-22.86-15.11-35.34-.91-6.94-2.47-19.14,7.37-18.65Z"/>
    <path class="st71" d="M1227.65,1634.17h0c-4.74,5.24-9.54,10.22-14.4,14.96-4.86,4.74-9.91,8.85-15.15,12.34-1.5,1-1.87,1-1.12,0,1.25-1.5,2.24-2.74,2.99-3.74.25-.25,1.06-1.18,2.43-2.81,1.37-1.62,2.93-3.43,4.68-5.42,2.24-2.49,4.8-5.42,7.67-8.79,2.87-3.37,5.74-6.98,8.6-10.85,2.87-3.87,5.42-7.73,7.67-11.6,2.24-3.86,3.62-7.54,4.11-11.03.75-5.49,0-9.91-2.24-13.28-2.24-3.37-6.11-4.8-11.6-4.3-4.24.5-8.54,1.75-12.9,3.74-4.36,1.99-8.98,3.99-13.84,5.98-4.86,1.99-10.04,3.43-15.52,4.3-5.49.87-11.47.19-17.95-2.06-.5,1.99-.75,4.18-.75,6.55s-.06,4.68-.19,6.92c-.12,2.24-.5,4.3-1.12,6.17-.62,1.87-1.56,3.43-2.81,4.68-.75.5-1.5.75-2.24.75.25-.25.5-.87.75-1.87,1.5-5.74,1.62-10.54.37-14.4-1.25-3.87-3.05-7.29-5.42-10.29-2.37-2.99-5.05-5.8-8.04-8.42-2.99-2.62-5.49-5.42-7.48-8.42,1.25-3.49,2.49-6.8,3.74-9.91,1.25-3.12,2.49-6.17,3.74-9.16,1,1.25,1.99,2.56,2.99,3.93,1,1.37,1.99,2.68,2.99,3.93,4.99,4.74,11.35,8.17,19.08,10.29,7.73,2.12,15.83,2.43,24.31.94,3.74-.75,7.04-1.75,9.91-2.99,2.87-1.25,5.67-2.56,8.42-3.93,2.74-1.37,5.49-2.56,8.23-3.55,2.74-1,5.86-1.75,9.35-2.24,4.49-.5,8.29-.12,11.41,1.12,3.12,1.25,5.61,3.18,7.48,5.8,1.87,2.62,3.12,5.61,3.74,8.98.62,3.37.69,6.92.19,10.66-1.25,7.23-4.05,13.9-8.42,20.01-4.36,6.11-8.91,11.78-13.65,17.02Z"/>
    <path class="st71" d="M923.15,1243.57c5.03,20.68,18.54,33.27,14.66,56.04-4.79,28.08-32.11,25.91-43.84,4.38-9.23,28.85-41.11,35.86-46.36.59-1.2-8.03.77-17.67-.72-24.05-.47-2.03-4.89-.8-5.3-5.4-.56-6.29.97-13.03,5.28-17.8,4.66-3.49,6.43,1.45,7.92,4.89,5.42,12.54-4.96,50.39,17.59,45.73,33.63-6.94-.9-54.73,14-61.85,5.06-1.24,5.12,5.34,6.32,8.73,7.12,20.13,5.37,56.75,38.2,42.72-3.87-11.74-13.47-22.86-15.11-35.34-.91-6.94-2.47-19.14,7.37-18.65Z"/>
  </g>
</svg>